G04 MADE WITH FRITZING*
G04 WWW.FRITZING.ORG*
G04 DOUBLE SIDED*
G04 HOLES PLATED*
G04 CONTOUR ON CENTER OF CONTOUR VECTOR*
%ASAXBY*%
%FSLAX23Y23*%
%MOIN*%
%OFA0B0*%
%SFA1.0B1.0*%
%ADD10C,0.084722*%
%ADD11C,0.075000*%
%ADD12C,0.039370*%
%ADD13C,0.082000*%
%ADD14C,0.070000*%
%ADD15C,0.080000*%
%ADD16C,0.075361*%
%ADD17R,0.082000X0.082000*%
%ADD18R,0.075000X0.075000*%
%ADD19R,0.080000X0.080000*%
%ADD20C,0.024000*%
%ADD21C,0.048000*%
%ADD22R,0.001000X0.001000*%
%LNCOPPER0*%
G90*
G70*
G54D10*
X1840Y1535D03*
X1993Y1535D03*
X2138Y1535D03*
X1840Y741D03*
X2140Y741D03*
X1840Y543D03*
X2140Y544D03*
X1840Y940D03*
X2140Y940D03*
G54D11*
X1640Y1740D03*
X1740Y1740D03*
X1840Y1740D03*
X1940Y1740D03*
X2040Y1740D03*
X2140Y1740D03*
G54D12*
X2540Y1640D03*
G54D13*
X2340Y1140D03*
X2340Y1438D03*
X2440Y1140D03*
X2440Y1438D03*
G54D11*
X748Y1739D03*
X748Y1639D03*
G54D14*
X891Y1638D03*
X891Y1738D03*
G54D11*
X1940Y340D03*
X2040Y340D03*
G54D15*
X2840Y802D03*
X2840Y940D03*
X2840Y1102D03*
X2840Y1240D03*
X2840Y1402D03*
X2840Y1540D03*
G54D11*
X1340Y1439D03*
X1640Y1439D03*
X1340Y1339D03*
X1640Y1339D03*
X1340Y1239D03*
X1640Y1239D03*
X1340Y1139D03*
X1640Y1139D03*
X1340Y1039D03*
X1640Y1039D03*
X1340Y939D03*
X1640Y939D03*
X1340Y839D03*
X1640Y839D03*
X1340Y739D03*
X1640Y739D03*
X1340Y639D03*
X1640Y639D03*
X1340Y539D03*
X1640Y539D03*
X1340Y439D03*
X1640Y439D03*
G54D13*
X540Y1740D03*
X440Y1740D03*
X340Y1740D03*
G54D16*
X340Y2040D03*
X440Y2040D03*
X540Y2040D03*
X640Y2040D03*
X740Y2040D03*
X840Y2040D03*
X940Y2040D03*
X1040Y2040D03*
X1140Y2040D03*
X1240Y2040D03*
X1340Y2040D03*
X1440Y2040D03*
X1540Y2040D03*
X1640Y2040D03*
X1740Y2040D03*
X1840Y2040D03*
X1940Y2040D03*
X2040Y2040D03*
X2140Y2040D03*
X2240Y2040D03*
X2240Y2140D03*
X2140Y2140D03*
X2040Y2140D03*
X1940Y2140D03*
X1840Y2140D03*
X1740Y2140D03*
X1640Y2140D03*
X1540Y2140D03*
X1440Y2140D03*
X1340Y2140D03*
X1240Y2140D03*
X1140Y2140D03*
X1040Y2140D03*
X940Y2140D03*
X840Y2140D03*
X740Y2140D03*
X640Y2140D03*
X540Y2140D03*
X440Y2140D03*
X340Y2140D03*
G54D15*
X436Y741D03*
X240Y740D03*
G54D11*
X940Y1340D03*
X940Y985D03*
X740Y940D03*
X740Y1340D03*
X741Y439D03*
X741Y739D03*
X841Y439D03*
X841Y739D03*
X941Y439D03*
X941Y739D03*
X1041Y439D03*
X1041Y739D03*
G54D13*
X640Y1340D03*
X640Y1042D03*
G54D11*
X1140Y740D03*
X1140Y340D03*
G54D14*
X1040Y340D03*
X939Y340D03*
G54D11*
X1140Y1739D03*
X1140Y1539D03*
X1140Y939D03*
X1140Y1339D03*
G54D12*
X240Y1540D03*
G54D17*
X2340Y1139D03*
X2440Y1139D03*
G54D18*
X748Y1739D03*
X1940Y340D03*
G54D19*
X2840Y802D03*
X2840Y1102D03*
X2840Y1402D03*
G54D18*
X1340Y1439D03*
G54D17*
X540Y1740D03*
G54D18*
X741Y439D03*
G54D17*
X640Y1341D03*
G54D18*
X1140Y1739D03*
G54D20*
X1840Y1639D02*
X1639Y1641D01*
D02*
X1639Y1641D02*
X1340Y1841D01*
D02*
X1340Y1841D02*
X1140Y1940D01*
D02*
X1140Y1940D02*
X1140Y2009D01*
D02*
X1969Y1551D02*
X1840Y1639D01*
D02*
X2240Y1140D02*
X2340Y1140D01*
D02*
X2340Y1140D02*
X2372Y1140D01*
D02*
X2008Y1510D02*
X2240Y1140D01*
D02*
X2240Y1840D02*
X2160Y1760D01*
D02*
X2240Y2008D02*
X2240Y1840D01*
D02*
X2040Y1840D02*
X2140Y1740D01*
D02*
X2040Y1840D02*
X2040Y1840D01*
D02*
X1939Y1840D02*
X2040Y1840D01*
D02*
X1860Y1760D02*
X1939Y1840D01*
D02*
X1239Y1839D02*
X1040Y1940D01*
D02*
X1539Y1641D02*
X1239Y1839D01*
D02*
X1040Y1940D02*
X1040Y2009D01*
D02*
X941Y1940D02*
X940Y2009D01*
D02*
X2340Y1840D02*
X2240Y1840D01*
D02*
X2526Y1653D02*
X2340Y1840D01*
D02*
X2740Y1440D02*
X2811Y1413D01*
D02*
X2553Y1627D02*
X2740Y1440D01*
D02*
X2372Y1140D02*
X2408Y1140D01*
D02*
X1540Y1340D02*
X1539Y1641D01*
D02*
X1620Y1259D02*
X1540Y1340D01*
D02*
X1439Y1440D02*
X1439Y1639D01*
D02*
X1140Y1839D02*
X941Y1940D01*
D02*
X1439Y1639D02*
X1140Y1839D01*
G54D21*
D02*
X1040Y377D02*
X1040Y400D01*
D02*
X1237Y1441D02*
X1300Y1440D01*
D02*
X1240Y740D02*
X1300Y739D01*
D02*
X1041Y540D02*
X939Y540D01*
D02*
X1041Y479D02*
X1041Y540D01*
D02*
X854Y1738D02*
X788Y1739D01*
D02*
X1239Y1639D02*
X1168Y1711D01*
D02*
X740Y1841D02*
X740Y1997D01*
D02*
X745Y1779D02*
X740Y1841D01*
D02*
X1100Y1739D02*
X928Y1738D01*
D02*
X1240Y939D02*
X1300Y939D01*
D02*
X1237Y1441D02*
X1240Y939D01*
D02*
X1239Y1639D02*
X1237Y1441D01*
D02*
X1340Y979D02*
X1340Y999D01*
D02*
X1380Y939D02*
X1600Y939D01*
D02*
X1640Y979D02*
X1640Y999D01*
D02*
X1040Y539D02*
X1040Y479D01*
D02*
X1139Y540D02*
X1040Y539D01*
D02*
X1240Y740D02*
X1240Y639D01*
D02*
X1240Y639D02*
X1139Y540D01*
D02*
X1240Y939D02*
X1240Y740D01*
D02*
X1077Y340D02*
X1100Y340D01*
G54D20*
D02*
X940Y411D02*
X940Y366D01*
D02*
X241Y1840D02*
X240Y1559D01*
D02*
X340Y1939D02*
X241Y1840D01*
D02*
X740Y1941D02*
X340Y1939D01*
D02*
X746Y1768D02*
X740Y1841D01*
D02*
X740Y1841D02*
X740Y1941D01*
G54D22*
X1437Y1453D02*
X1441Y1453D01*
X1434Y1452D02*
X1444Y1452D01*
X1432Y1451D02*
X1445Y1451D01*
X1431Y1450D02*
X1447Y1450D01*
X1430Y1449D02*
X1447Y1449D01*
X1430Y1448D02*
X1448Y1448D01*
X1429Y1447D02*
X1449Y1447D01*
X1428Y1446D02*
X1449Y1446D01*
X1428Y1445D02*
X1450Y1445D01*
X1428Y1444D02*
X1450Y1444D01*
X1428Y1443D02*
X1450Y1443D01*
X1427Y1442D02*
X1450Y1442D01*
X1427Y1441D02*
X1450Y1441D01*
X1427Y1440D02*
X1450Y1440D01*
X1427Y1439D02*
X1450Y1439D01*
X1427Y1438D02*
X1450Y1438D01*
X1427Y1437D02*
X1450Y1437D01*
X1426Y1436D02*
X1450Y1436D01*
X1426Y1435D02*
X1450Y1435D01*
X1426Y1434D02*
X1449Y1434D01*
X1426Y1433D02*
X1449Y1433D01*
X1426Y1432D02*
X1449Y1432D01*
X1425Y1431D02*
X1449Y1431D01*
X1425Y1430D02*
X1449Y1430D01*
X1425Y1429D02*
X1449Y1429D01*
X1425Y1428D02*
X1448Y1428D01*
X1425Y1427D02*
X1448Y1427D01*
X1424Y1426D02*
X1448Y1426D01*
X1424Y1425D02*
X1448Y1425D01*
X1424Y1424D02*
X1447Y1424D01*
X1424Y1423D02*
X1447Y1423D01*
X1423Y1422D02*
X1447Y1422D01*
X1423Y1421D02*
X1447Y1421D01*
X1423Y1420D02*
X1446Y1420D01*
X1422Y1419D02*
X1446Y1419D01*
X1422Y1418D02*
X1446Y1418D01*
X1422Y1417D02*
X1446Y1417D01*
X1421Y1416D02*
X1445Y1416D01*
X1421Y1415D02*
X1445Y1415D01*
X1421Y1414D02*
X1445Y1414D01*
X1420Y1413D02*
X1444Y1413D01*
X1420Y1412D02*
X1444Y1412D01*
X1420Y1411D02*
X1444Y1411D01*
X1419Y1410D02*
X1444Y1410D01*
X1419Y1409D02*
X1443Y1409D01*
X1418Y1408D02*
X1443Y1408D01*
X1418Y1407D02*
X1442Y1407D01*
X1417Y1406D02*
X1442Y1406D01*
X1417Y1405D02*
X1442Y1405D01*
X1417Y1404D02*
X1441Y1404D01*
X1416Y1403D02*
X1441Y1403D01*
X1416Y1402D02*
X1441Y1402D01*
X1415Y1401D02*
X1440Y1401D01*
X1415Y1400D02*
X1440Y1400D01*
X1414Y1399D02*
X1439Y1399D01*
X1413Y1398D02*
X1439Y1398D01*
X1413Y1397D02*
X1439Y1397D01*
X1412Y1396D02*
X1438Y1396D01*
X1412Y1395D02*
X1438Y1395D01*
X1411Y1394D02*
X1437Y1394D01*
X1410Y1393D02*
X1437Y1393D01*
X1410Y1392D02*
X1436Y1392D01*
X1409Y1391D02*
X1436Y1391D01*
X1408Y1390D02*
X1435Y1390D01*
X1408Y1389D02*
X1435Y1389D01*
X1407Y1388D02*
X1434Y1388D01*
X1406Y1387D02*
X1434Y1387D01*
X1405Y1386D02*
X1433Y1386D01*
X1405Y1385D02*
X1433Y1385D01*
X1404Y1384D02*
X1432Y1384D01*
X1403Y1383D02*
X1431Y1383D01*
X1402Y1382D02*
X1431Y1382D01*
X1401Y1381D02*
X1430Y1381D01*
X1400Y1380D02*
X1430Y1380D01*
X1399Y1379D02*
X1429Y1379D01*
X1398Y1378D02*
X1428Y1378D01*
X1397Y1377D02*
X1428Y1377D01*
X1396Y1376D02*
X1427Y1376D01*
X1395Y1375D02*
X1426Y1375D01*
X1394Y1374D02*
X1425Y1374D01*
X1393Y1373D02*
X1425Y1373D01*
X1392Y1372D02*
X1424Y1372D01*
X1390Y1371D02*
X1423Y1371D01*
X1389Y1370D02*
X1422Y1370D01*
X1388Y1369D02*
X1421Y1369D01*
X1386Y1368D02*
X1421Y1368D01*
X1385Y1367D02*
X1420Y1367D01*
X1383Y1366D02*
X1419Y1366D01*
X1381Y1365D02*
X1418Y1365D01*
X1380Y1364D02*
X1417Y1364D01*
X1378Y1363D02*
X1416Y1363D01*
X1376Y1362D02*
X1415Y1362D01*
X1374Y1361D02*
X1414Y1361D01*
X1372Y1360D02*
X1413Y1360D01*
X1370Y1359D02*
X1412Y1359D01*
X1367Y1358D02*
X1411Y1358D01*
X1364Y1357D02*
X1410Y1357D01*
X1361Y1356D02*
X1409Y1356D01*
X1358Y1355D02*
X1408Y1355D01*
X1354Y1354D02*
X1406Y1354D01*
X1349Y1353D02*
X1405Y1353D01*
X1341Y1352D02*
X1404Y1352D01*
X1335Y1351D02*
X1403Y1351D01*
X1333Y1350D02*
X1401Y1350D01*
X1332Y1349D02*
X1400Y1349D01*
X1331Y1348D02*
X1398Y1348D01*
X1330Y1347D02*
X1397Y1347D01*
X1329Y1346D02*
X1395Y1346D01*
X1329Y1345D02*
X1394Y1345D01*
X1328Y1344D02*
X1392Y1344D01*
X1328Y1343D02*
X1390Y1343D01*
X1328Y1342D02*
X1389Y1342D01*
X1328Y1341D02*
X1387Y1341D01*
X1328Y1340D02*
X1385Y1340D01*
X1328Y1339D02*
X1383Y1339D01*
X1328Y1338D02*
X1380Y1338D01*
X1328Y1337D02*
X1378Y1337D01*
X1328Y1336D02*
X1375Y1336D01*
X1329Y1335D02*
X1373Y1335D01*
X1329Y1334D02*
X1370Y1334D01*
X1330Y1333D02*
X1367Y1333D01*
X1331Y1332D02*
X1364Y1332D01*
X1332Y1331D02*
X1360Y1331D01*
X1333Y1330D02*
X1355Y1330D01*
X1335Y1329D02*
X1350Y1329D01*
X1339Y1328D02*
X1340Y1328D01*
X932Y564D02*
X944Y564D01*
X926Y563D02*
X947Y563D01*
X922Y562D02*
X949Y562D01*
X918Y561D02*
X951Y561D01*
X915Y560D02*
X952Y560D01*
X912Y559D02*
X953Y559D01*
X909Y558D02*
X955Y558D01*
X907Y557D02*
X956Y557D01*
X904Y556D02*
X956Y556D01*
X902Y555D02*
X957Y555D01*
X900Y554D02*
X958Y554D01*
X898Y553D02*
X959Y553D01*
X896Y552D02*
X959Y552D01*
X894Y551D02*
X959Y551D01*
X892Y550D02*
X960Y550D01*
X890Y549D02*
X960Y549D01*
X888Y548D02*
X961Y548D01*
X887Y547D02*
X961Y547D01*
X885Y546D02*
X961Y546D01*
X884Y545D02*
X961Y545D01*
X882Y544D02*
X962Y544D01*
X881Y543D02*
X962Y543D01*
X879Y542D02*
X962Y542D01*
X878Y541D02*
X962Y541D01*
X877Y540D02*
X962Y540D01*
X875Y539D02*
X962Y539D01*
X874Y538D02*
X962Y538D01*
X873Y537D02*
X961Y537D01*
X872Y536D02*
X961Y536D01*
X870Y535D02*
X961Y535D01*
X869Y534D02*
X961Y534D01*
X868Y533D02*
X960Y533D01*
X867Y532D02*
X960Y532D01*
X866Y531D02*
X960Y531D01*
X865Y530D02*
X959Y530D01*
X864Y529D02*
X959Y529D01*
X863Y528D02*
X958Y528D01*
X862Y527D02*
X957Y527D01*
X861Y526D02*
X957Y526D01*
X860Y525D02*
X956Y525D01*
X859Y524D02*
X955Y524D01*
X858Y523D02*
X954Y523D01*
X857Y522D02*
X952Y522D01*
X856Y521D02*
X951Y521D01*
X855Y520D02*
X949Y520D01*
X855Y519D02*
X947Y519D01*
X854Y518D02*
X945Y518D01*
X853Y517D02*
X940Y517D01*
X852Y516D02*
X935Y516D01*
X851Y515D02*
X931Y515D01*
X851Y514D02*
X928Y514D01*
X850Y513D02*
X925Y513D01*
X849Y512D02*
X922Y512D01*
X848Y511D02*
X920Y511D01*
X847Y510D02*
X918Y510D01*
X847Y509D02*
X916Y509D01*
X846Y508D02*
X914Y508D01*
X845Y507D02*
X912Y507D01*
X845Y506D02*
X911Y506D01*
X844Y505D02*
X909Y505D01*
X843Y504D02*
X908Y504D01*
X843Y503D02*
X906Y503D01*
X842Y502D02*
X905Y502D01*
X841Y501D02*
X904Y501D01*
X841Y500D02*
X902Y500D01*
X840Y499D02*
X901Y499D01*
X839Y498D02*
X900Y498D01*
X839Y497D02*
X899Y497D01*
X838Y496D02*
X898Y496D01*
X838Y495D02*
X897Y495D01*
X837Y494D02*
X896Y494D01*
X836Y493D02*
X895Y493D01*
X836Y492D02*
X894Y492D01*
X835Y491D02*
X893Y491D01*
X835Y490D02*
X892Y490D01*
X834Y489D02*
X891Y489D01*
X834Y488D02*
X890Y488D01*
X833Y487D02*
X889Y487D01*
X833Y486D02*
X888Y486D01*
X832Y485D02*
X888Y485D01*
X832Y484D02*
X887Y484D01*
X831Y483D02*
X886Y483D01*
X831Y482D02*
X885Y482D01*
X830Y481D02*
X885Y481D01*
X830Y480D02*
X884Y480D01*
X829Y479D02*
X883Y479D01*
X829Y478D02*
X883Y478D01*
X828Y477D02*
X882Y477D01*
X828Y476D02*
X881Y476D01*
X827Y475D02*
X881Y475D01*
X827Y474D02*
X880Y474D01*
X827Y473D02*
X879Y473D01*
X826Y472D02*
X879Y472D01*
X826Y471D02*
X878Y471D01*
X825Y470D02*
X878Y470D01*
X825Y469D02*
X877Y469D01*
X824Y468D02*
X876Y468D01*
X824Y467D02*
X876Y467D01*
X824Y466D02*
X875Y466D01*
X823Y465D02*
X875Y465D01*
X823Y464D02*
X874Y464D01*
X823Y463D02*
X874Y463D01*
X822Y462D02*
X873Y462D01*
X822Y461D02*
X873Y461D01*
X822Y460D02*
X872Y460D01*
X821Y459D02*
X872Y459D01*
X821Y458D02*
X871Y458D01*
X821Y457D02*
X871Y457D01*
X820Y456D02*
X870Y456D01*
X820Y455D02*
X870Y455D01*
X820Y454D02*
X870Y454D01*
X819Y453D02*
X869Y453D01*
X819Y452D02*
X869Y452D01*
X819Y451D02*
X868Y451D01*
X818Y450D02*
X868Y450D01*
X818Y449D02*
X868Y449D01*
X818Y448D02*
X867Y448D01*
X818Y447D02*
X867Y447D01*
X817Y446D02*
X866Y446D01*
X817Y445D02*
X866Y445D01*
X817Y444D02*
X866Y444D01*
X817Y443D02*
X865Y443D01*
X817Y442D02*
X865Y442D01*
X817Y441D02*
X865Y441D01*
X817Y440D02*
X864Y440D01*
X817Y439D02*
X864Y439D01*
X817Y438D02*
X864Y438D01*
X817Y437D02*
X864Y437D01*
X817Y436D02*
X863Y436D01*
X817Y435D02*
X863Y435D01*
X818Y434D02*
X863Y434D01*
X818Y433D02*
X862Y433D01*
X818Y432D02*
X862Y432D01*
X819Y431D02*
X862Y431D01*
X819Y430D02*
X861Y430D01*
X820Y429D02*
X861Y429D01*
X820Y428D02*
X860Y428D01*
X821Y427D02*
X859Y427D01*
X822Y426D02*
X859Y426D01*
X823Y425D02*
X858Y425D01*
X824Y424D02*
X857Y424D01*
X825Y423D02*
X856Y423D01*
X826Y422D02*
X855Y422D01*
X827Y421D02*
X853Y421D01*
X829Y420D02*
X852Y420D01*
X831Y419D02*
X850Y419D01*
X833Y418D02*
X847Y418D01*
X837Y417D02*
X844Y417D01*
D02*
G04 End of Copper0*
M02*