; NON-PLATED HOLES START AT T1
; THROUGH (PLATED) HOLES START AT T100
M48
INCH
T1C0.114173
T100C0.030000
T101C0.042000
T102C0.040639
T103C0.015748
T104C0.035000
T105C0.040000
T106C0.034722
%
T1
X024330Y020749
X001489Y001429
X024338Y001445
X001489Y020749
T100
X008909Y017381
X010396Y003399
X009394Y003399
X008909Y016379
T101
X023396Y011399
X005396Y017399
X024396Y011399
X006396Y013399
X006396Y010419
X004396Y017399
X024396Y014379
X023396Y014379
X003396Y017399
T102
X015396Y021399
X005396Y021399
X016396Y021399
X013396Y020399
X017396Y021399
X012396Y020399
X020396Y020399
X018396Y020399
X003396Y021399
X008396Y021399
X006396Y021399
X014396Y020399
X004396Y021399
X007396Y021399
X018396Y021399
X020396Y021399
X014396Y021399
X019396Y021399
X011396Y020399
X007396Y020399
X019396Y020399
X016396Y020399
X009396Y021399
X009396Y020399
X021396Y020399
X010396Y020399
X017396Y020399
X013396Y021399
X004396Y020399
X022396Y020399
X005396Y020399
X010396Y021399
X011396Y021399
X015396Y020399
X012396Y021399
X022396Y021399
X006396Y020399
X008396Y020399
X003396Y020399
X021396Y021399
T103
X002396Y015399
X025396Y016399
T104
X019396Y003399
X016397Y013390
X016397Y008390
X019396Y017399
X007407Y004393
X011397Y015390
X011396Y003399
X016397Y014390
X011397Y017390
X011395Y013390
X013397Y009390
X008407Y007393
X007407Y007393
X013397Y014390
X009396Y013399
X008407Y004393
X013397Y011390
X017396Y017399
X007396Y013399
X013397Y008390
X013397Y010390
X013397Y012390
X011395Y009390
X016397Y006390
X010407Y004393
X009407Y004393
X021396Y017399
X020396Y017399
X016397Y005390
X016397Y011390
X016397Y004390
X011396Y007399
X016397Y010390
X009407Y007393
X013397Y006390
X013397Y007390
X016397Y007390
X007396Y009399
X007479Y017390
X020396Y003399
X013397Y013390
X016396Y017399
X010407Y007393
X013397Y005390
X016397Y009390
X009396Y009848
X013397Y004390
X007479Y016390
X016397Y012390
X018396Y017399
T105
X002396Y007399
X028396Y008021
X028396Y012399
X028396Y014021
X028396Y009399
X028396Y011021
X028396Y015399
X004360Y007412
T106
X021400Y005435
X021397Y007412
X019927Y015345
X018403Y015345
X018402Y005428
X021396Y009399
X018400Y009396
X021382Y015345
X018403Y007412
T00
M30
