G04 MADE WITH FRITZING*
G04 WWW.FRITZING.ORG*
G04 DOUBLE SIDED*
G04 HOLES PLATED*
G04 CONTOUR ON CENTER OF CONTOUR VECTOR*
%ASAXBY*%
%FSLAX23Y23*%
%MOIN*%
%OFA0B0*%
%SFA1.0B1.0*%
%ADD10C,0.085000*%
%ADD11C,0.049370*%
%ADD12C,0.092000*%
%ADD13C,0.080000*%
%ADD14C,0.090000*%
%ADD15C,0.085361*%
%ADD16C,0.124173*%
%ADD17C,0.094722*%
%ADD18R,0.053307X0.057244*%
%ADD19R,0.116299X0.080866*%
%ADD20R,0.092000X0.092000*%
%ADD21R,0.080079X0.069596*%
%ADD22R,0.080079X0.069606*%
%ADD23R,0.080079X0.069370*%
%ADD24R,0.080079X0.068937*%
%ADD25R,0.080079X0.069378*%
%ADD26R,0.057244X0.053307*%
%ADD27R,0.085000X0.085000*%
%ADD28R,0.090000X0.090000*%
%LNMASK1*%
G90*
G70*
G54D10*
X1640Y1740D03*
X1740Y1740D03*
X1840Y1740D03*
X1940Y1740D03*
X2040Y1740D03*
X2140Y1740D03*
G54D11*
X2540Y1640D03*
G54D12*
X2340Y1140D03*
X2340Y1438D03*
X2440Y1140D03*
X2440Y1438D03*
G54D10*
X748Y1739D03*
X748Y1639D03*
G54D13*
X891Y1638D03*
X891Y1738D03*
G54D10*
X1940Y340D03*
X2040Y340D03*
G54D14*
X2840Y802D03*
X2840Y940D03*
X2840Y1102D03*
X2840Y1240D03*
X2840Y1402D03*
X2840Y1540D03*
G54D10*
X1340Y1439D03*
X1640Y1439D03*
X1340Y1339D03*
X1640Y1339D03*
X1340Y1239D03*
X1640Y1239D03*
X1340Y1139D03*
X1640Y1139D03*
X1340Y1039D03*
X1640Y1039D03*
X1340Y939D03*
X1640Y939D03*
X1340Y839D03*
X1640Y839D03*
X1340Y739D03*
X1640Y739D03*
X1340Y639D03*
X1640Y639D03*
X1340Y539D03*
X1640Y539D03*
X1340Y439D03*
X1640Y439D03*
G54D12*
X540Y1740D03*
X440Y1740D03*
X340Y1740D03*
G54D15*
X340Y2040D03*
X440Y2040D03*
X540Y2040D03*
X640Y2040D03*
X740Y2040D03*
X840Y2040D03*
X940Y2040D03*
X1040Y2040D03*
X1140Y2040D03*
X1240Y2040D03*
X1340Y2040D03*
X1440Y2040D03*
X1540Y2040D03*
X1640Y2040D03*
X1740Y2040D03*
X1840Y2040D03*
X1940Y2040D03*
X2040Y2040D03*
X2140Y2040D03*
X2240Y2040D03*
X2240Y2140D03*
X2140Y2140D03*
X2040Y2140D03*
X1940Y2140D03*
X1840Y2140D03*
X1740Y2140D03*
X1640Y2140D03*
X1540Y2140D03*
X1440Y2140D03*
X1340Y2140D03*
X1240Y2140D03*
X1140Y2140D03*
X1040Y2140D03*
X940Y2140D03*
X840Y2140D03*
X740Y2140D03*
X640Y2140D03*
X540Y2140D03*
X440Y2140D03*
X340Y2140D03*
G54D16*
X149Y2075D03*
X149Y143D03*
X2434Y145D03*
X2433Y2075D03*
G54D14*
X436Y741D03*
X240Y740D03*
G54D10*
X740Y940D03*
X740Y1340D03*
X741Y439D03*
X741Y739D03*
X841Y439D03*
X841Y739D03*
X941Y439D03*
X941Y739D03*
X1041Y439D03*
X1041Y739D03*
G54D12*
X640Y1340D03*
X640Y1042D03*
G54D10*
X1140Y740D03*
X1140Y340D03*
G54D13*
X1040Y340D03*
X939Y340D03*
G54D10*
X1140Y1739D03*
X1140Y1539D03*
X1140Y939D03*
X1140Y1339D03*
G54D17*
X1840Y1535D03*
X1993Y1535D03*
X2138Y1535D03*
X1840Y741D03*
X2140Y741D03*
X1840Y543D03*
X2140Y544D03*
X1840Y940D03*
X2140Y940D03*
G54D11*
X240Y1540D03*
G54D10*
X940Y1340D03*
X940Y985D03*
G54D18*
X240Y1440D03*
X240Y1373D03*
X340Y1440D03*
X340Y1373D03*
G54D19*
X3123Y1915D03*
X3123Y1742D03*
X2987Y1915D03*
X2987Y1742D03*
G54D20*
X2340Y1139D03*
X2440Y1139D03*
G54D21*
X2836Y2040D03*
X2738Y2040D03*
G54D22*
X2640Y2040D03*
G54D23*
X2640Y1685D03*
G54D24*
X2737Y1685D03*
G54D25*
X2837Y1685D03*
G54D26*
X2007Y1840D03*
X1940Y1840D03*
X1807Y1840D03*
X1740Y1840D03*
G54D27*
X748Y1739D03*
X1940Y340D03*
G54D28*
X2840Y802D03*
X2840Y1102D03*
X2840Y1402D03*
G54D27*
X1340Y1439D03*
G54D20*
X540Y1740D03*
G54D27*
X741Y439D03*
G54D20*
X640Y1341D03*
G54D27*
X1140Y1739D03*
G04 End of Mask1*
M02*