G04 MADE WITH FRITZING*
G04 WWW.FRITZING.ORG*
G04 DOUBLE SIDED*
G04 HOLES PLATED*
G04 CONTOUR ON CENTER OF CONTOUR VECTOR*
%ASAXBY*%
%FSLAX23Y23*%
%MOIN*%
%OFA0B0*%
%SFA1.0B1.0*%
%ADD10C,0.008*%
%LNCONTOUR*%
G90*
G70*
G54D10*
X115Y2211D02*
X116Y2211D01*
X117Y2211D01*
X118Y2211D01*
X119Y2211D01*
X120Y2211D01*
X121Y2211D01*
X122Y2211D01*
X123Y2211D01*
X124Y2211D01*
X125Y2211D01*
X126Y2211D01*
X127Y2211D01*
X128Y2211D01*
X129Y2211D01*
X130Y2211D01*
X131Y2211D01*
X132Y2211D01*
X133Y2211D01*
X134Y2211D01*
X135Y2211D01*
X136Y2211D01*
X137Y2211D01*
X138Y2211D01*
X139Y2211D01*
X140Y2211D01*
X141Y2211D01*
X142Y2211D01*
X143Y2211D01*
X144Y2211D01*
X145Y2211D01*
X146Y2211D01*
X147Y2211D01*
X148Y2211D01*
X149Y2211D01*
X150Y2211D01*
X151Y2211D01*
X152Y2211D01*
X153Y2211D01*
X154Y2211D01*
X155Y2211D01*
X156Y2211D01*
X157Y2211D01*
X158Y2211D01*
X159Y2211D01*
X160Y2211D01*
X161Y2211D01*
X162Y2211D01*
X163Y2211D01*
X164Y2211D01*
X165Y2211D01*
X166Y2211D01*
X167Y2211D01*
X168Y2211D01*
X169Y2211D01*
X170Y2211D01*
X171Y2211D01*
X172Y2211D01*
X173Y2211D01*
X174Y2211D01*
X175Y2211D01*
X176Y2211D01*
X177Y2211D01*
X178Y2211D01*
X179Y2211D01*
X180Y2211D01*
X181Y2211D01*
X182Y2211D01*
X183Y2211D01*
X184Y2211D01*
X185Y2211D01*
X186Y2211D01*
X187Y2211D01*
X188Y2211D01*
X189Y2211D01*
X190Y2211D01*
X191Y2211D01*
X192Y2211D01*
X193Y2211D01*
X194Y2211D01*
X195Y2211D01*
X196Y2211D01*
X197Y2211D01*
X198Y2211D01*
X199Y2211D01*
X200Y2211D01*
X201Y2211D01*
X202Y2211D01*
X203Y2211D01*
X204Y2211D01*
X205Y2211D01*
X206Y2211D01*
X207Y2211D01*
X208Y2211D01*
X209Y2211D01*
X210Y2211D01*
X211Y2211D01*
X212Y2211D01*
X213Y2211D01*
X214Y2211D01*
X215Y2211D01*
X216Y2211D01*
X217Y2211D01*
X218Y2211D01*
X219Y2211D01*
X220Y2211D01*
X221Y2211D01*
X222Y2211D01*
X223Y2211D01*
X224Y2211D01*
X225Y2211D01*
X226Y2211D01*
X227Y2211D01*
X228Y2211D01*
X229Y2211D01*
X230Y2211D01*
X231Y2211D01*
X232Y2211D01*
X233Y2211D01*
X234Y2211D01*
X235Y2211D01*
X236Y2211D01*
X237Y2211D01*
X238Y2211D01*
X239Y2211D01*
X240Y2211D01*
X241Y2211D01*
X242Y2211D01*
X243Y2211D01*
X244Y2211D01*
X245Y2211D01*
X246Y2211D01*
X247Y2211D01*
X248Y2211D01*
X249Y2211D01*
X250Y2211D01*
X251Y2211D01*
X252Y2211D01*
X253Y2211D01*
X254Y2211D01*
X255Y2211D01*
X256Y2211D01*
X257Y2211D01*
X258Y2211D01*
X259Y2211D01*
X260Y2211D01*
X261Y2211D01*
X262Y2211D01*
X263Y2211D01*
X264Y2211D01*
X265Y2211D01*
X266Y2211D01*
X267Y2211D01*
X268Y2211D01*
X269Y2211D01*
X270Y2211D01*
X271Y2211D01*
X272Y2211D01*
X273Y2211D01*
X274Y2211D01*
X275Y2211D01*
X276Y2211D01*
X277Y2211D01*
X278Y2211D01*
X279Y2211D01*
X280Y2211D01*
X281Y2211D01*
X282Y2211D01*
X283Y2211D01*
X284Y2211D01*
X285Y2211D01*
X286Y2211D01*
X287Y2211D01*
X288Y2211D01*
X289Y2211D01*
X290Y2211D01*
X291Y2211D01*
X292Y2211D01*
X293Y2211D01*
X294Y2211D01*
X295Y2211D01*
X296Y2211D01*
X297Y2211D01*
X298Y2211D01*
X299Y2211D01*
X300Y2211D01*
X301Y2211D01*
X302Y2211D01*
X303Y2211D01*
X304Y2211D01*
X305Y2211D01*
X306Y2211D01*
X307Y2211D01*
X308Y2211D01*
X309Y2211D01*
X310Y2211D01*
X311Y2211D01*
X312Y2211D01*
X313Y2211D01*
X314Y2211D01*
X315Y2211D01*
X316Y2211D01*
X317Y2211D01*
X318Y2211D01*
X319Y2211D01*
X320Y2211D01*
X321Y2211D01*
X322Y2211D01*
X323Y2211D01*
X324Y2211D01*
X325Y2211D01*
X326Y2211D01*
X327Y2211D01*
X328Y2211D01*
X329Y2211D01*
X330Y2211D01*
X331Y2211D01*
X332Y2211D01*
X333Y2211D01*
X334Y2211D01*
X335Y2211D01*
X336Y2211D01*
X337Y2211D01*
X338Y2211D01*
X339Y2211D01*
X340Y2211D01*
X341Y2211D01*
X342Y2211D01*
X343Y2211D01*
X344Y2211D01*
X345Y2211D01*
X346Y2211D01*
X347Y2211D01*
X348Y2211D01*
X349Y2211D01*
X350Y2211D01*
X351Y2211D01*
X352Y2211D01*
X353Y2211D01*
X354Y2211D01*
X355Y2211D01*
X356Y2211D01*
X357Y2211D01*
X358Y2211D01*
X359Y2211D01*
X360Y2211D01*
X361Y2211D01*
X362Y2211D01*
X363Y2211D01*
X364Y2211D01*
X365Y2211D01*
X366Y2211D01*
X367Y2211D01*
X368Y2211D01*
X369Y2211D01*
X370Y2211D01*
X371Y2211D01*
X372Y2211D01*
X373Y2211D01*
X374Y2211D01*
X375Y2211D01*
X376Y2211D01*
X377Y2211D01*
X378Y2211D01*
X379Y2211D01*
X380Y2211D01*
X381Y2211D01*
X382Y2211D01*
X383Y2211D01*
X384Y2211D01*
X385Y2211D01*
X386Y2211D01*
X387Y2211D01*
X388Y2211D01*
X389Y2211D01*
X390Y2211D01*
X391Y2211D01*
X392Y2211D01*
X393Y2211D01*
X394Y2211D01*
X395Y2211D01*
X396Y2211D01*
X397Y2211D01*
X398Y2211D01*
X399Y2211D01*
X400Y2211D01*
X401Y2211D01*
X402Y2211D01*
X403Y2211D01*
X404Y2211D01*
X405Y2211D01*
X406Y2211D01*
X407Y2211D01*
X408Y2211D01*
X409Y2211D01*
X410Y2211D01*
X411Y2211D01*
X412Y2211D01*
X413Y2211D01*
X414Y2211D01*
X415Y2211D01*
X416Y2211D01*
X417Y2211D01*
X418Y2211D01*
X419Y2211D01*
X420Y2211D01*
X421Y2211D01*
X422Y2211D01*
X423Y2211D01*
X424Y2211D01*
X425Y2211D01*
X426Y2211D01*
X427Y2211D01*
X428Y2211D01*
X429Y2211D01*
X430Y2211D01*
X431Y2211D01*
X432Y2211D01*
X433Y2211D01*
X434Y2211D01*
X435Y2211D01*
X436Y2211D01*
X437Y2211D01*
X438Y2211D01*
X439Y2211D01*
X440Y2211D01*
X441Y2211D01*
X442Y2211D01*
X443Y2211D01*
X444Y2211D01*
X445Y2211D01*
X446Y2211D01*
X447Y2211D01*
X448Y2211D01*
X449Y2211D01*
X450Y2211D01*
X451Y2211D01*
X452Y2211D01*
X453Y2211D01*
X454Y2211D01*
X455Y2211D01*
X456Y2211D01*
X457Y2211D01*
X458Y2211D01*
X459Y2211D01*
X460Y2211D01*
X461Y2211D01*
X462Y2211D01*
X463Y2211D01*
X464Y2211D01*
X465Y2211D01*
X466Y2211D01*
X467Y2211D01*
X468Y2211D01*
X469Y2211D01*
X470Y2211D01*
X471Y2211D01*
X472Y2211D01*
X473Y2211D01*
X474Y2211D01*
X475Y2211D01*
X476Y2211D01*
X477Y2211D01*
X478Y2211D01*
X479Y2211D01*
X480Y2211D01*
X481Y2211D01*
X482Y2211D01*
X483Y2211D01*
X484Y2211D01*
X485Y2211D01*
X486Y2211D01*
X487Y2211D01*
X488Y2211D01*
X489Y2211D01*
X490Y2211D01*
X491Y2211D01*
X492Y2211D01*
X493Y2211D01*
X494Y2211D01*
X495Y2211D01*
X496Y2211D01*
X497Y2211D01*
X498Y2211D01*
X499Y2211D01*
X500Y2211D01*
X501Y2211D01*
X502Y2211D01*
X503Y2211D01*
X504Y2211D01*
X505Y2211D01*
X506Y2211D01*
X507Y2211D01*
X508Y2211D01*
X509Y2211D01*
X510Y2211D01*
X511Y2211D01*
X512Y2211D01*
X513Y2211D01*
X514Y2211D01*
X515Y2211D01*
X516Y2211D01*
X517Y2211D01*
X518Y2211D01*
X519Y2211D01*
X520Y2211D01*
X521Y2211D01*
X522Y2211D01*
X523Y2211D01*
X524Y2211D01*
X525Y2211D01*
X526Y2211D01*
X527Y2211D01*
X528Y2211D01*
X529Y2211D01*
X530Y2211D01*
X531Y2211D01*
X532Y2211D01*
X533Y2211D01*
X534Y2211D01*
X535Y2211D01*
X536Y2211D01*
X537Y2211D01*
X538Y2211D01*
X539Y2211D01*
X540Y2211D01*
X541Y2211D01*
X542Y2211D01*
X543Y2211D01*
X544Y2211D01*
X545Y2211D01*
X546Y2211D01*
X547Y2211D01*
X548Y2211D01*
X549Y2211D01*
X550Y2211D01*
X551Y2211D01*
X552Y2211D01*
X553Y2211D01*
X554Y2211D01*
X555Y2211D01*
X556Y2211D01*
X557Y2211D01*
X558Y2211D01*
X559Y2211D01*
X560Y2211D01*
X561Y2211D01*
X562Y2211D01*
X563Y2211D01*
X564Y2211D01*
X565Y2211D01*
X566Y2211D01*
X567Y2211D01*
X568Y2211D01*
X569Y2211D01*
X570Y2211D01*
X571Y2211D01*
X572Y2211D01*
X573Y2211D01*
X574Y2211D01*
X575Y2211D01*
X576Y2211D01*
X577Y2211D01*
X578Y2211D01*
X579Y2211D01*
X580Y2211D01*
X581Y2211D01*
X582Y2211D01*
X583Y2211D01*
X584Y2211D01*
X585Y2211D01*
X586Y2211D01*
X587Y2211D01*
X588Y2211D01*
X589Y2211D01*
X590Y2211D01*
X591Y2211D01*
X592Y2211D01*
X593Y2211D01*
X594Y2211D01*
X595Y2211D01*
X596Y2211D01*
X597Y2211D01*
X598Y2211D01*
X599Y2211D01*
X600Y2211D01*
X601Y2211D01*
X602Y2211D01*
X603Y2211D01*
X604Y2211D01*
X605Y2211D01*
X606Y2211D01*
X607Y2211D01*
X608Y2211D01*
X609Y2211D01*
X610Y2211D01*
X611Y2211D01*
X612Y2211D01*
X613Y2211D01*
X614Y2211D01*
X615Y2211D01*
X616Y2211D01*
X617Y2211D01*
X618Y2211D01*
X619Y2211D01*
X620Y2211D01*
X621Y2211D01*
X622Y2211D01*
X623Y2211D01*
X624Y2211D01*
X625Y2211D01*
X626Y2211D01*
X627Y2211D01*
X628Y2211D01*
X629Y2211D01*
X630Y2211D01*
X631Y2211D01*
X632Y2211D01*
X633Y2211D01*
X634Y2211D01*
X635Y2211D01*
X636Y2211D01*
X637Y2211D01*
X638Y2211D01*
X639Y2211D01*
X640Y2211D01*
X641Y2211D01*
X642Y2211D01*
X643Y2211D01*
X644Y2211D01*
X645Y2211D01*
X646Y2211D01*
X647Y2211D01*
X648Y2211D01*
X649Y2211D01*
X650Y2211D01*
X651Y2211D01*
X652Y2211D01*
X653Y2211D01*
X654Y2211D01*
X655Y2211D01*
X656Y2211D01*
X657Y2211D01*
X658Y2211D01*
X659Y2211D01*
X660Y2211D01*
X661Y2211D01*
X662Y2211D01*
X663Y2211D01*
X664Y2211D01*
X665Y2211D01*
X666Y2211D01*
X667Y2211D01*
X668Y2211D01*
X669Y2211D01*
X670Y2211D01*
X671Y2211D01*
X672Y2211D01*
X673Y2211D01*
X674Y2211D01*
X675Y2211D01*
X676Y2211D01*
X677Y2211D01*
X678Y2211D01*
X679Y2211D01*
X680Y2211D01*
X681Y2211D01*
X682Y2211D01*
X683Y2211D01*
X684Y2211D01*
X685Y2211D01*
X686Y2211D01*
X687Y2211D01*
X688Y2211D01*
X689Y2211D01*
X690Y2211D01*
X691Y2211D01*
X692Y2211D01*
X693Y2211D01*
X694Y2211D01*
X695Y2211D01*
X696Y2211D01*
X697Y2211D01*
X698Y2211D01*
X699Y2211D01*
X700Y2211D01*
X701Y2211D01*
X702Y2211D01*
X703Y2211D01*
X704Y2211D01*
X705Y2211D01*
X706Y2211D01*
X707Y2211D01*
X708Y2211D01*
X709Y2211D01*
X710Y2211D01*
X711Y2211D01*
X712Y2211D01*
X713Y2211D01*
X714Y2211D01*
X715Y2211D01*
X716Y2211D01*
X717Y2211D01*
X718Y2211D01*
X719Y2211D01*
X720Y2211D01*
X721Y2211D01*
X722Y2211D01*
X723Y2211D01*
X724Y2211D01*
X725Y2211D01*
X726Y2211D01*
X727Y2211D01*
X728Y2211D01*
X729Y2211D01*
X730Y2211D01*
X731Y2211D01*
X732Y2211D01*
X733Y2211D01*
X734Y2211D01*
X735Y2211D01*
X736Y2211D01*
X737Y2211D01*
X738Y2211D01*
X739Y2211D01*
X740Y2211D01*
X741Y2211D01*
X742Y2211D01*
X743Y2211D01*
X744Y2211D01*
X745Y2211D01*
X746Y2211D01*
X747Y2211D01*
X748Y2211D01*
X749Y2211D01*
X750Y2211D01*
X751Y2211D01*
X752Y2211D01*
X753Y2211D01*
X754Y2211D01*
X755Y2211D01*
X756Y2211D01*
X757Y2211D01*
X758Y2211D01*
X759Y2211D01*
X760Y2211D01*
X761Y2211D01*
X762Y2211D01*
X763Y2211D01*
X764Y2211D01*
X765Y2211D01*
X766Y2211D01*
X767Y2211D01*
X768Y2211D01*
X769Y2211D01*
X770Y2211D01*
X771Y2211D01*
X772Y2211D01*
X773Y2211D01*
X774Y2211D01*
X775Y2211D01*
X776Y2211D01*
X777Y2211D01*
X778Y2211D01*
X779Y2211D01*
X780Y2211D01*
X781Y2211D01*
X782Y2211D01*
X783Y2211D01*
X784Y2211D01*
X785Y2211D01*
X786Y2211D01*
X787Y2211D01*
X788Y2211D01*
X789Y2211D01*
X790Y2211D01*
X791Y2211D01*
X792Y2211D01*
X793Y2211D01*
X794Y2211D01*
X795Y2211D01*
X796Y2211D01*
X797Y2211D01*
X798Y2211D01*
X799Y2211D01*
X800Y2211D01*
X801Y2211D01*
X802Y2211D01*
X803Y2211D01*
X804Y2211D01*
X805Y2211D01*
X806Y2211D01*
X807Y2211D01*
X808Y2211D01*
X809Y2211D01*
X810Y2211D01*
X811Y2211D01*
X812Y2211D01*
X813Y2211D01*
X814Y2211D01*
X815Y2211D01*
X816Y2211D01*
X817Y2211D01*
X818Y2211D01*
X819Y2211D01*
X820Y2211D01*
X821Y2211D01*
X822Y2211D01*
X823Y2211D01*
X824Y2211D01*
X825Y2211D01*
X826Y2211D01*
X827Y2211D01*
X828Y2211D01*
X829Y2211D01*
X830Y2211D01*
X831Y2211D01*
X832Y2211D01*
X833Y2211D01*
X834Y2211D01*
X835Y2211D01*
X836Y2211D01*
X837Y2211D01*
X838Y2211D01*
X839Y2211D01*
X840Y2211D01*
X841Y2211D01*
X842Y2211D01*
X843Y2211D01*
X844Y2211D01*
X845Y2211D01*
X846Y2211D01*
X847Y2211D01*
X848Y2211D01*
X849Y2211D01*
X850Y2211D01*
X851Y2211D01*
X852Y2211D01*
X853Y2211D01*
X854Y2211D01*
X855Y2211D01*
X856Y2211D01*
X857Y2211D01*
X858Y2211D01*
X859Y2211D01*
X860Y2211D01*
X861Y2211D01*
X862Y2211D01*
X863Y2211D01*
X864Y2211D01*
X865Y2211D01*
X866Y2211D01*
X867Y2211D01*
X868Y2211D01*
X869Y2211D01*
X870Y2211D01*
X871Y2211D01*
X872Y2211D01*
X873Y2211D01*
X874Y2211D01*
X875Y2211D01*
X876Y2211D01*
X877Y2211D01*
X878Y2211D01*
X879Y2211D01*
X880Y2211D01*
X881Y2211D01*
X882Y2211D01*
X883Y2211D01*
X884Y2211D01*
X885Y2211D01*
X886Y2211D01*
X887Y2211D01*
X888Y2211D01*
X889Y2211D01*
X890Y2211D01*
X891Y2211D01*
X892Y2211D01*
X893Y2211D01*
X894Y2211D01*
X895Y2211D01*
X896Y2211D01*
X897Y2211D01*
X898Y2211D01*
X899Y2211D01*
X900Y2211D01*
X901Y2211D01*
X902Y2211D01*
X903Y2211D01*
X904Y2211D01*
X905Y2211D01*
X906Y2211D01*
X907Y2211D01*
X908Y2211D01*
X909Y2211D01*
X910Y2211D01*
X911Y2211D01*
X912Y2211D01*
X913Y2211D01*
X914Y2211D01*
X915Y2211D01*
X916Y2211D01*
X917Y2211D01*
X918Y2211D01*
X919Y2211D01*
X920Y2211D01*
X921Y2211D01*
X922Y2211D01*
X923Y2211D01*
X924Y2211D01*
X925Y2211D01*
X926Y2211D01*
X927Y2211D01*
X928Y2211D01*
X929Y2211D01*
X930Y2211D01*
X931Y2211D01*
X932Y2211D01*
X933Y2211D01*
X934Y2211D01*
X935Y2211D01*
X936Y2211D01*
X937Y2211D01*
X938Y2211D01*
X939Y2211D01*
X940Y2211D01*
X941Y2211D01*
X942Y2211D01*
X943Y2211D01*
X944Y2211D01*
X945Y2211D01*
X946Y2211D01*
X947Y2211D01*
X948Y2211D01*
X949Y2211D01*
X950Y2211D01*
X951Y2211D01*
X952Y2211D01*
X953Y2211D01*
X954Y2211D01*
X955Y2211D01*
X956Y2211D01*
X957Y2211D01*
X958Y2211D01*
X959Y2211D01*
X960Y2211D01*
X961Y2211D01*
X962Y2211D01*
X963Y2211D01*
X964Y2211D01*
X965Y2211D01*
X966Y2211D01*
X967Y2211D01*
X968Y2211D01*
X969Y2211D01*
X970Y2211D01*
X971Y2211D01*
X972Y2211D01*
X973Y2211D01*
X974Y2211D01*
X975Y2211D01*
X976Y2211D01*
X977Y2211D01*
X978Y2211D01*
X979Y2211D01*
X980Y2211D01*
X981Y2211D01*
X982Y2211D01*
X983Y2211D01*
X984Y2211D01*
X985Y2211D01*
X986Y2211D01*
X987Y2211D01*
X988Y2211D01*
X989Y2211D01*
X990Y2211D01*
X991Y2211D01*
X992Y2211D01*
X993Y2211D01*
X994Y2211D01*
X995Y2211D01*
X996Y2211D01*
X997Y2211D01*
X998Y2211D01*
X999Y2211D01*
X1000Y2211D01*
X1001Y2211D01*
X1002Y2211D01*
X1003Y2211D01*
X1004Y2211D01*
X1005Y2211D01*
X1006Y2211D01*
X1007Y2211D01*
X1008Y2211D01*
X1009Y2211D01*
X1010Y2211D01*
X1011Y2211D01*
X1012Y2211D01*
X1013Y2211D01*
X1014Y2211D01*
X1015Y2211D01*
X1016Y2211D01*
X1017Y2211D01*
X1018Y2211D01*
X1019Y2211D01*
X1020Y2211D01*
X1021Y2211D01*
X1022Y2211D01*
X1023Y2211D01*
X1024Y2211D01*
X1025Y2211D01*
X1026Y2211D01*
X1027Y2211D01*
X1028Y2211D01*
X1029Y2211D01*
X1030Y2211D01*
X1031Y2211D01*
X1032Y2211D01*
X1033Y2211D01*
X1034Y2211D01*
X1035Y2211D01*
X1036Y2211D01*
X1037Y2211D01*
X1038Y2211D01*
X1039Y2211D01*
X1040Y2211D01*
X1041Y2211D01*
X1042Y2211D01*
X1043Y2211D01*
X1044Y2211D01*
X1045Y2211D01*
X1046Y2211D01*
X1047Y2211D01*
X1048Y2211D01*
X1049Y2211D01*
X1050Y2211D01*
X1051Y2211D01*
X1052Y2211D01*
X1053Y2211D01*
X1054Y2211D01*
X1055Y2211D01*
X1056Y2211D01*
X1057Y2211D01*
X1058Y2211D01*
X1059Y2211D01*
X1060Y2211D01*
X1061Y2211D01*
X1062Y2211D01*
X1063Y2211D01*
X1064Y2211D01*
X1065Y2211D01*
X1066Y2211D01*
X1067Y2211D01*
X1068Y2211D01*
X1069Y2211D01*
X1070Y2211D01*
X1071Y2211D01*
X1072Y2211D01*
X1073Y2211D01*
X1074Y2211D01*
X1075Y2211D01*
X1076Y2211D01*
X1077Y2211D01*
X1078Y2211D01*
X1079Y2211D01*
X1080Y2211D01*
X1081Y2211D01*
X1082Y2211D01*
X1083Y2211D01*
X1084Y2211D01*
X1085Y2211D01*
X1086Y2211D01*
X1087Y2211D01*
X1088Y2211D01*
X1089Y2211D01*
X1090Y2211D01*
X1091Y2211D01*
X1092Y2211D01*
X1093Y2211D01*
X1094Y2211D01*
X1095Y2211D01*
X1096Y2211D01*
X1097Y2211D01*
X1098Y2211D01*
X1099Y2211D01*
X1100Y2211D01*
X1101Y2211D01*
X1102Y2211D01*
X1103Y2211D01*
X1104Y2211D01*
X1105Y2211D01*
X1106Y2211D01*
X1107Y2211D01*
X1108Y2211D01*
X1109Y2211D01*
X1110Y2211D01*
X1111Y2211D01*
X1112Y2211D01*
X1113Y2211D01*
X1114Y2211D01*
X1115Y2211D01*
X1116Y2211D01*
X1117Y2211D01*
X1118Y2211D01*
X1119Y2211D01*
X1120Y2211D01*
X1121Y2211D01*
X1122Y2211D01*
X1123Y2211D01*
X1124Y2211D01*
X1125Y2211D01*
X1126Y2211D01*
X1127Y2211D01*
X1128Y2211D01*
X1129Y2211D01*
X1130Y2211D01*
X1131Y2211D01*
X1132Y2211D01*
X1133Y2211D01*
X1134Y2211D01*
X1135Y2211D01*
X1136Y2211D01*
X1137Y2211D01*
X1138Y2211D01*
X1139Y2211D01*
X1140Y2211D01*
X1141Y2211D01*
X1142Y2211D01*
X1143Y2211D01*
X1144Y2211D01*
X1145Y2211D01*
X1146Y2211D01*
X1147Y2211D01*
X1148Y2211D01*
X1149Y2211D01*
X1150Y2211D01*
X1151Y2211D01*
X1152Y2211D01*
X1153Y2211D01*
X1154Y2211D01*
X1155Y2211D01*
X1156Y2211D01*
X1157Y2211D01*
X1158Y2211D01*
X1159Y2211D01*
X1160Y2211D01*
X1161Y2211D01*
X1162Y2211D01*
X1163Y2211D01*
X1164Y2211D01*
X1165Y2211D01*
X1166Y2211D01*
X1167Y2211D01*
X1168Y2211D01*
X1169Y2211D01*
X1170Y2211D01*
X1171Y2211D01*
X1172Y2211D01*
X1173Y2211D01*
X1174Y2211D01*
X1175Y2211D01*
X1176Y2211D01*
X1177Y2211D01*
X1178Y2211D01*
X1179Y2211D01*
X1180Y2211D01*
X1181Y2211D01*
X1182Y2211D01*
X1183Y2211D01*
X1184Y2211D01*
X1185Y2211D01*
X1186Y2211D01*
X1187Y2211D01*
X1188Y2211D01*
X1189Y2211D01*
X1190Y2211D01*
X1191Y2211D01*
X1192Y2211D01*
X1193Y2211D01*
X1194Y2211D01*
X1195Y2211D01*
X1196Y2211D01*
X1197Y2211D01*
X1198Y2211D01*
X1199Y2211D01*
X1200Y2211D01*
X1201Y2211D01*
X1202Y2211D01*
X1203Y2211D01*
X1204Y2211D01*
X1205Y2211D01*
X1206Y2211D01*
X1207Y2211D01*
X1208Y2211D01*
X1209Y2211D01*
X1210Y2211D01*
X1211Y2211D01*
X1212Y2211D01*
X1213Y2211D01*
X1214Y2211D01*
X1215Y2211D01*
X1216Y2211D01*
X1217Y2211D01*
X1218Y2211D01*
X1219Y2211D01*
X1220Y2211D01*
X1221Y2211D01*
X1222Y2211D01*
X1223Y2211D01*
X1224Y2211D01*
X1225Y2211D01*
X1226Y2211D01*
X1227Y2211D01*
X1228Y2211D01*
X1229Y2211D01*
X1230Y2211D01*
X1231Y2211D01*
X1232Y2211D01*
X1233Y2211D01*
X1234Y2211D01*
X1235Y2211D01*
X1236Y2211D01*
X1237Y2211D01*
X1238Y2211D01*
X1239Y2211D01*
X1240Y2211D01*
X1241Y2211D01*
X1242Y2211D01*
X1243Y2211D01*
X1244Y2211D01*
X1245Y2211D01*
X1246Y2211D01*
X1247Y2211D01*
X1248Y2211D01*
X1249Y2211D01*
X1250Y2211D01*
X1251Y2211D01*
X1252Y2211D01*
X1253Y2211D01*
X1254Y2211D01*
X1255Y2211D01*
X1256Y2211D01*
X1257Y2211D01*
X1258Y2211D01*
X1259Y2211D01*
X1260Y2211D01*
X1261Y2211D01*
X1262Y2211D01*
X1263Y2211D01*
X1264Y2211D01*
X1265Y2211D01*
X1266Y2211D01*
X1267Y2211D01*
X1268Y2211D01*
X1269Y2211D01*
X1270Y2211D01*
X1271Y2211D01*
X1272Y2211D01*
X1273Y2211D01*
X1274Y2211D01*
X1275Y2211D01*
X1276Y2211D01*
X1277Y2211D01*
X1278Y2211D01*
X1279Y2211D01*
X1280Y2211D01*
X1281Y2211D01*
X1282Y2211D01*
X1283Y2211D01*
X1284Y2211D01*
X1285Y2211D01*
X1286Y2211D01*
X1287Y2211D01*
X1288Y2211D01*
X1289Y2211D01*
X1290Y2211D01*
X1291Y2211D01*
X1292Y2211D01*
X1293Y2211D01*
X1294Y2211D01*
X1295Y2211D01*
X1296Y2211D01*
X1297Y2211D01*
X1298Y2211D01*
X1299Y2211D01*
X1300Y2211D01*
X1301Y2211D01*
X1302Y2211D01*
X1303Y2211D01*
X1304Y2211D01*
X1305Y2211D01*
X1306Y2211D01*
X1307Y2211D01*
X1308Y2211D01*
X1309Y2211D01*
X1310Y2211D01*
X1311Y2211D01*
X1312Y2211D01*
X1313Y2211D01*
X1314Y2211D01*
X1315Y2211D01*
X1316Y2211D01*
X1317Y2211D01*
X1318Y2211D01*
X1319Y2211D01*
X1320Y2211D01*
X1321Y2211D01*
X1322Y2211D01*
X1323Y2211D01*
X1324Y2211D01*
X1325Y2211D01*
X1326Y2211D01*
X1327Y2211D01*
X1328Y2211D01*
X1329Y2211D01*
X1330Y2211D01*
X1331Y2211D01*
X1332Y2211D01*
X1333Y2211D01*
X1334Y2211D01*
X1335Y2211D01*
X1336Y2211D01*
X1337Y2211D01*
X1338Y2211D01*
X1339Y2211D01*
X1340Y2211D01*
X1341Y2211D01*
X1342Y2211D01*
X1343Y2211D01*
X1344Y2211D01*
X1345Y2211D01*
X1346Y2211D01*
X1347Y2211D01*
X1348Y2211D01*
X1349Y2211D01*
X1350Y2211D01*
X1351Y2211D01*
X1352Y2211D01*
X1353Y2211D01*
X1354Y2211D01*
X1355Y2211D01*
X1356Y2211D01*
X1357Y2211D01*
X1358Y2211D01*
X1359Y2211D01*
X1360Y2211D01*
X1361Y2211D01*
X1362Y2211D01*
X1363Y2211D01*
X1364Y2211D01*
X1365Y2211D01*
X1366Y2211D01*
X1367Y2211D01*
X1368Y2211D01*
X1369Y2211D01*
X1370Y2211D01*
X1371Y2211D01*
X1372Y2211D01*
X1373Y2211D01*
X1374Y2211D01*
X1375Y2211D01*
X1376Y2211D01*
X1377Y2211D01*
X1378Y2211D01*
X1379Y2211D01*
X1380Y2211D01*
X1381Y2211D01*
X1382Y2211D01*
X1383Y2211D01*
X1384Y2211D01*
X1385Y2211D01*
X1386Y2211D01*
X1387Y2211D01*
X1388Y2211D01*
X1389Y2211D01*
X1390Y2211D01*
X1391Y2211D01*
X1392Y2211D01*
X1393Y2211D01*
X1394Y2211D01*
X1395Y2211D01*
X1396Y2211D01*
X1397Y2211D01*
X1398Y2211D01*
X1399Y2211D01*
X1400Y2211D01*
X1401Y2211D01*
X1402Y2211D01*
X1403Y2211D01*
X1404Y2211D01*
X1405Y2211D01*
X1406Y2211D01*
X1407Y2211D01*
X1408Y2211D01*
X1409Y2211D01*
X1410Y2211D01*
X1411Y2211D01*
X1412Y2211D01*
X1413Y2211D01*
X1414Y2211D01*
X1415Y2211D01*
X1416Y2211D01*
X1417Y2211D01*
X1418Y2211D01*
X1419Y2211D01*
X1420Y2211D01*
X1421Y2211D01*
X1422Y2211D01*
X1423Y2211D01*
X1424Y2211D01*
X1425Y2211D01*
X1426Y2211D01*
X1427Y2211D01*
X1428Y2211D01*
X1429Y2211D01*
X1430Y2211D01*
X1431Y2211D01*
X1432Y2211D01*
X1433Y2211D01*
X1434Y2211D01*
X1435Y2211D01*
X1436Y2211D01*
X1437Y2211D01*
X1438Y2211D01*
X1439Y2211D01*
X1440Y2211D01*
X1441Y2211D01*
X1442Y2211D01*
X1443Y2211D01*
X1444Y2211D01*
X1445Y2211D01*
X1446Y2211D01*
X1447Y2211D01*
X1448Y2211D01*
X1449Y2211D01*
X1450Y2211D01*
X1451Y2211D01*
X1452Y2211D01*
X1453Y2211D01*
X1454Y2211D01*
X1455Y2211D01*
X1456Y2211D01*
X1457Y2211D01*
X1458Y2211D01*
X1459Y2211D01*
X1460Y2211D01*
X1461Y2211D01*
X1462Y2211D01*
X1463Y2211D01*
X1464Y2211D01*
X1465Y2211D01*
X1466Y2211D01*
X1467Y2211D01*
X1468Y2211D01*
X1469Y2211D01*
X1470Y2211D01*
X1471Y2211D01*
X1472Y2211D01*
X1473Y2211D01*
X1474Y2211D01*
X1475Y2211D01*
X1476Y2211D01*
X1477Y2211D01*
X1478Y2211D01*
X1479Y2211D01*
X1480Y2211D01*
X1481Y2211D01*
X1482Y2211D01*
X1483Y2211D01*
X1484Y2211D01*
X1485Y2211D01*
X1486Y2211D01*
X1487Y2211D01*
X1488Y2211D01*
X1489Y2211D01*
X1490Y2211D01*
X1491Y2211D01*
X1492Y2211D01*
X1493Y2211D01*
X1494Y2211D01*
X1495Y2211D01*
X1496Y2211D01*
X1497Y2211D01*
X1498Y2211D01*
X1499Y2211D01*
X1500Y2211D01*
X1501Y2211D01*
X1502Y2211D01*
X1503Y2211D01*
X1504Y2211D01*
X1505Y2211D01*
X1506Y2211D01*
X1507Y2211D01*
X1508Y2211D01*
X1509Y2211D01*
X1510Y2211D01*
X1511Y2211D01*
X1512Y2211D01*
X1513Y2211D01*
X1514Y2211D01*
X1515Y2211D01*
X1516Y2211D01*
X1517Y2211D01*
X1518Y2211D01*
X1519Y2211D01*
X1520Y2211D01*
X1521Y2211D01*
X1522Y2211D01*
X1523Y2211D01*
X1524Y2211D01*
X1525Y2211D01*
X1526Y2211D01*
X1527Y2211D01*
X1528Y2211D01*
X1529Y2211D01*
X1530Y2211D01*
X1531Y2211D01*
X1532Y2211D01*
X1533Y2211D01*
X1534Y2211D01*
X1535Y2211D01*
X1536Y2211D01*
X1537Y2211D01*
X1538Y2211D01*
X1539Y2211D01*
X1540Y2211D01*
X1541Y2211D01*
X1542Y2211D01*
X1543Y2211D01*
X1544Y2211D01*
X1545Y2211D01*
X1546Y2211D01*
X1547Y2211D01*
X1548Y2211D01*
X1549Y2211D01*
X1550Y2211D01*
X1551Y2211D01*
X1552Y2211D01*
X1553Y2211D01*
X1554Y2211D01*
X1555Y2211D01*
X1556Y2211D01*
X1557Y2211D01*
X1558Y2211D01*
X1559Y2211D01*
X1560Y2211D01*
X1561Y2211D01*
X1562Y2211D01*
X1563Y2211D01*
X1564Y2211D01*
X1565Y2211D01*
X1566Y2211D01*
X1567Y2211D01*
X1568Y2211D01*
X1569Y2211D01*
X1570Y2211D01*
X1571Y2211D01*
X1572Y2211D01*
X1573Y2211D01*
X1574Y2211D01*
X1575Y2211D01*
X1576Y2211D01*
X1577Y2211D01*
X1578Y2211D01*
X1579Y2211D01*
X1580Y2211D01*
X1581Y2211D01*
X1582Y2211D01*
X1583Y2211D01*
X1584Y2211D01*
X1585Y2211D01*
X1586Y2211D01*
X1587Y2211D01*
X1588Y2211D01*
X1589Y2211D01*
X1590Y2211D01*
X1591Y2211D01*
X1592Y2211D01*
X1593Y2211D01*
X1594Y2211D01*
X1595Y2211D01*
X1596Y2211D01*
X1597Y2211D01*
X1598Y2211D01*
X1599Y2211D01*
X1600Y2211D01*
X1601Y2211D01*
X1602Y2211D01*
X1603Y2211D01*
X1604Y2211D01*
X1605Y2211D01*
X1606Y2211D01*
X1607Y2211D01*
X1608Y2211D01*
X1609Y2211D01*
X1610Y2211D01*
X1611Y2211D01*
X1612Y2211D01*
X1613Y2211D01*
X1614Y2211D01*
X1615Y2211D01*
X1616Y2211D01*
X1617Y2211D01*
X1618Y2211D01*
X1619Y2211D01*
X1620Y2211D01*
X1621Y2211D01*
X1622Y2211D01*
X1623Y2211D01*
X1624Y2211D01*
X1625Y2211D01*
X1626Y2211D01*
X1627Y2211D01*
X1628Y2211D01*
X1629Y2211D01*
X1630Y2211D01*
X1631Y2211D01*
X1632Y2211D01*
X1633Y2211D01*
X1634Y2211D01*
X1635Y2211D01*
X1636Y2211D01*
X1637Y2211D01*
X1638Y2211D01*
X1639Y2211D01*
X1640Y2211D01*
X1641Y2211D01*
X1642Y2211D01*
X1643Y2211D01*
X1644Y2211D01*
X1645Y2211D01*
X1646Y2211D01*
X1647Y2211D01*
X1648Y2211D01*
X1649Y2211D01*
X1650Y2211D01*
X1651Y2211D01*
X1652Y2211D01*
X1653Y2211D01*
X1654Y2211D01*
X1655Y2211D01*
X1656Y2211D01*
X1657Y2211D01*
X1658Y2211D01*
X1659Y2211D01*
X1660Y2211D01*
X1661Y2211D01*
X1662Y2211D01*
X1663Y2211D01*
X1664Y2211D01*
X1665Y2211D01*
X1666Y2211D01*
X1667Y2211D01*
X1668Y2211D01*
X1669Y2211D01*
X1670Y2211D01*
X1671Y2211D01*
X1672Y2211D01*
X1673Y2211D01*
X1674Y2211D01*
X1675Y2211D01*
X1676Y2211D01*
X1677Y2211D01*
X1678Y2211D01*
X1679Y2211D01*
X1680Y2211D01*
X1681Y2211D01*
X1682Y2211D01*
X1683Y2211D01*
X1684Y2211D01*
X1685Y2211D01*
X1686Y2211D01*
X1687Y2211D01*
X1688Y2211D01*
X1689Y2211D01*
X1690Y2211D01*
X1691Y2211D01*
X1692Y2211D01*
X1693Y2211D01*
X1694Y2211D01*
X1695Y2211D01*
X1696Y2211D01*
X1697Y2211D01*
X1698Y2211D01*
X1699Y2211D01*
X1700Y2211D01*
X1701Y2211D01*
X1702Y2211D01*
X1703Y2211D01*
X1704Y2211D01*
X1705Y2211D01*
X1706Y2211D01*
X1707Y2211D01*
X1708Y2211D01*
X1709Y2211D01*
X1710Y2211D01*
X1711Y2211D01*
X1712Y2211D01*
X1713Y2211D01*
X1714Y2211D01*
X1715Y2211D01*
X1716Y2211D01*
X1717Y2211D01*
X1718Y2211D01*
X1719Y2211D01*
X1720Y2211D01*
X1721Y2211D01*
X1722Y2211D01*
X1723Y2211D01*
X1724Y2211D01*
X1725Y2211D01*
X1726Y2211D01*
X1727Y2211D01*
X1728Y2211D01*
X1729Y2211D01*
X1730Y2211D01*
X1731Y2211D01*
X1732Y2211D01*
X1733Y2211D01*
X1734Y2211D01*
X1735Y2211D01*
X1736Y2211D01*
X1737Y2211D01*
X1738Y2211D01*
X1739Y2211D01*
X1740Y2211D01*
X1741Y2211D01*
X1742Y2211D01*
X1743Y2211D01*
X1744Y2211D01*
X1745Y2211D01*
X1746Y2211D01*
X1747Y2211D01*
X1748Y2211D01*
X1749Y2211D01*
X1750Y2211D01*
X1751Y2211D01*
X1752Y2211D01*
X1753Y2211D01*
X1754Y2211D01*
X1755Y2211D01*
X1756Y2211D01*
X1757Y2211D01*
X1758Y2211D01*
X1759Y2211D01*
X1760Y2211D01*
X1761Y2211D01*
X1762Y2211D01*
X1763Y2211D01*
X1764Y2211D01*
X1765Y2211D01*
X1766Y2211D01*
X1767Y2211D01*
X1768Y2211D01*
X1769Y2211D01*
X1770Y2211D01*
X1771Y2211D01*
X1772Y2211D01*
X1773Y2211D01*
X1774Y2211D01*
X1775Y2211D01*
X1776Y2211D01*
X1777Y2211D01*
X1778Y2211D01*
X1779Y2211D01*
X1780Y2211D01*
X1781Y2211D01*
X1782Y2211D01*
X1783Y2211D01*
X1784Y2211D01*
X1785Y2211D01*
X1786Y2211D01*
X1787Y2211D01*
X1788Y2211D01*
X1789Y2211D01*
X1790Y2211D01*
X1791Y2211D01*
X1792Y2211D01*
X1793Y2211D01*
X1794Y2211D01*
X1795Y2211D01*
X1796Y2211D01*
X1797Y2211D01*
X1798Y2211D01*
X1799Y2211D01*
X1800Y2211D01*
X1801Y2211D01*
X1802Y2211D01*
X1803Y2211D01*
X1804Y2211D01*
X1805Y2211D01*
X1806Y2211D01*
X1807Y2211D01*
X1808Y2211D01*
X1809Y2211D01*
X1810Y2211D01*
X1811Y2211D01*
X1812Y2211D01*
X1813Y2211D01*
X1814Y2211D01*
X1815Y2211D01*
X1816Y2211D01*
X1817Y2211D01*
X1818Y2211D01*
X1819Y2211D01*
X1820Y2211D01*
X1821Y2211D01*
X1822Y2211D01*
X1823Y2211D01*
X1824Y2211D01*
X1825Y2211D01*
X1826Y2211D01*
X1827Y2211D01*
X1828Y2211D01*
X1829Y2211D01*
X1830Y2211D01*
X1831Y2211D01*
X1832Y2211D01*
X1833Y2211D01*
X1834Y2211D01*
X1835Y2211D01*
X1836Y2211D01*
X1837Y2211D01*
X1838Y2211D01*
X1839Y2211D01*
X1840Y2211D01*
X1841Y2211D01*
X1842Y2211D01*
X1843Y2211D01*
X1844Y2211D01*
X1845Y2211D01*
X1846Y2211D01*
X1847Y2211D01*
X1848Y2211D01*
X1849Y2211D01*
X1850Y2211D01*
X1851Y2211D01*
X1852Y2211D01*
X1853Y2211D01*
X1854Y2211D01*
X1855Y2211D01*
X1856Y2211D01*
X1857Y2211D01*
X1858Y2211D01*
X1859Y2211D01*
X1860Y2211D01*
X1861Y2211D01*
X1862Y2211D01*
X1863Y2211D01*
X1864Y2211D01*
X1865Y2211D01*
X1866Y2211D01*
X1867Y2211D01*
X1868Y2211D01*
X1869Y2211D01*
X1870Y2211D01*
X1871Y2211D01*
X1872Y2211D01*
X1873Y2211D01*
X1874Y2211D01*
X1875Y2211D01*
X1876Y2211D01*
X1877Y2211D01*
X1878Y2211D01*
X1879Y2211D01*
X1880Y2211D01*
X1881Y2211D01*
X1882Y2211D01*
X1883Y2211D01*
X1884Y2211D01*
X1885Y2211D01*
X1886Y2211D01*
X1887Y2211D01*
X1888Y2211D01*
X1889Y2211D01*
X1890Y2211D01*
X1891Y2211D01*
X1892Y2211D01*
X1893Y2211D01*
X1894Y2211D01*
X1895Y2211D01*
X1896Y2211D01*
X1897Y2211D01*
X1898Y2211D01*
X1899Y2211D01*
X1900Y2211D01*
X1901Y2211D01*
X1902Y2211D01*
X1903Y2211D01*
X1904Y2211D01*
X1905Y2211D01*
X1906Y2211D01*
X1907Y2211D01*
X1908Y2211D01*
X1909Y2211D01*
X1910Y2211D01*
X1911Y2211D01*
X1912Y2211D01*
X1913Y2211D01*
X1914Y2211D01*
X1915Y2211D01*
X1916Y2211D01*
X1917Y2211D01*
X1918Y2211D01*
X1919Y2211D01*
X1920Y2211D01*
X1921Y2211D01*
X1922Y2211D01*
X1923Y2211D01*
X1924Y2211D01*
X1925Y2211D01*
X1926Y2211D01*
X1927Y2211D01*
X1928Y2211D01*
X1929Y2211D01*
X1930Y2211D01*
X1931Y2211D01*
X1932Y2211D01*
X1933Y2211D01*
X1934Y2211D01*
X1935Y2211D01*
X1936Y2211D01*
X1937Y2211D01*
X1938Y2211D01*
X1939Y2211D01*
X1940Y2211D01*
X1941Y2211D01*
X1942Y2211D01*
X1943Y2211D01*
X1944Y2211D01*
X1945Y2211D01*
X1946Y2211D01*
X1947Y2211D01*
X1948Y2211D01*
X1949Y2211D01*
X1950Y2211D01*
X1951Y2211D01*
X1952Y2211D01*
X1953Y2211D01*
X1954Y2211D01*
X1955Y2211D01*
X1956Y2211D01*
X1957Y2211D01*
X1958Y2211D01*
X1959Y2211D01*
X1960Y2211D01*
X1961Y2211D01*
X1962Y2211D01*
X1963Y2211D01*
X1964Y2211D01*
X1965Y2211D01*
X1966Y2211D01*
X1967Y2211D01*
X1968Y2211D01*
X1969Y2211D01*
X1970Y2211D01*
X1971Y2211D01*
X1972Y2211D01*
X1973Y2211D01*
X1974Y2211D01*
X1975Y2211D01*
X1976Y2211D01*
X1977Y2211D01*
X1978Y2211D01*
X1979Y2211D01*
X1980Y2211D01*
X1981Y2211D01*
X1982Y2211D01*
X1983Y2211D01*
X1984Y2211D01*
X1985Y2211D01*
X1986Y2211D01*
X1987Y2211D01*
X1988Y2211D01*
X1989Y2211D01*
X1990Y2211D01*
X1991Y2211D01*
X1992Y2211D01*
X1993Y2211D01*
X1994Y2211D01*
X1995Y2211D01*
X1996Y2211D01*
X1997Y2211D01*
X1998Y2211D01*
X1999Y2211D01*
X2000Y2211D01*
X2001Y2211D01*
X2002Y2211D01*
X2003Y2211D01*
X2004Y2211D01*
X2005Y2211D01*
X2006Y2211D01*
X2007Y2211D01*
X2008Y2211D01*
X2009Y2211D01*
X2010Y2211D01*
X2011Y2211D01*
X2012Y2211D01*
X2013Y2211D01*
X2014Y2211D01*
X2015Y2211D01*
X2016Y2211D01*
X2017Y2211D01*
X2018Y2211D01*
X2019Y2211D01*
X2020Y2211D01*
X2021Y2211D01*
X2022Y2211D01*
X2023Y2211D01*
X2024Y2211D01*
X2025Y2211D01*
X2026Y2211D01*
X2027Y2211D01*
X2028Y2211D01*
X2029Y2211D01*
X2030Y2211D01*
X2031Y2211D01*
X2032Y2211D01*
X2033Y2211D01*
X2034Y2211D01*
X2035Y2211D01*
X2036Y2211D01*
X2037Y2211D01*
X2038Y2211D01*
X2039Y2211D01*
X2040Y2211D01*
X2041Y2211D01*
X2042Y2211D01*
X2043Y2211D01*
X2044Y2211D01*
X2045Y2211D01*
X2046Y2211D01*
X2047Y2211D01*
X2048Y2211D01*
X2049Y2211D01*
X2050Y2211D01*
X2051Y2211D01*
X2052Y2211D01*
X2053Y2211D01*
X2054Y2211D01*
X2055Y2211D01*
X2056Y2211D01*
X2057Y2211D01*
X2058Y2211D01*
X2059Y2211D01*
X2060Y2211D01*
X2061Y2211D01*
X2062Y2211D01*
X2063Y2211D01*
X2064Y2211D01*
X2065Y2211D01*
X2066Y2211D01*
X2067Y2211D01*
X2068Y2211D01*
X2069Y2211D01*
X2070Y2211D01*
X2071Y2211D01*
X2072Y2211D01*
X2073Y2211D01*
X2074Y2211D01*
X2075Y2211D01*
X2076Y2211D01*
X2077Y2211D01*
X2078Y2211D01*
X2079Y2211D01*
X2080Y2211D01*
X2081Y2211D01*
X2082Y2211D01*
X2083Y2211D01*
X2084Y2211D01*
X2085Y2211D01*
X2086Y2211D01*
X2087Y2211D01*
X2088Y2211D01*
X2089Y2211D01*
X2090Y2211D01*
X2091Y2211D01*
X2092Y2211D01*
X2093Y2211D01*
X2094Y2211D01*
X2095Y2211D01*
X2096Y2211D01*
X2097Y2211D01*
X2098Y2211D01*
X2099Y2211D01*
X2100Y2211D01*
X2101Y2211D01*
X2102Y2211D01*
X2103Y2211D01*
X2104Y2211D01*
X2105Y2211D01*
X2106Y2211D01*
X2107Y2211D01*
X2108Y2211D01*
X2109Y2211D01*
X2110Y2211D01*
X2111Y2211D01*
X2112Y2211D01*
X2113Y2211D01*
X2114Y2211D01*
X2115Y2211D01*
X2116Y2211D01*
X2117Y2211D01*
X2118Y2211D01*
X2119Y2211D01*
X2120Y2211D01*
X2121Y2211D01*
X2122Y2211D01*
X2123Y2211D01*
X2124Y2211D01*
X2125Y2211D01*
X2126Y2211D01*
X2127Y2211D01*
X2128Y2211D01*
X2129Y2211D01*
X2130Y2211D01*
X2131Y2211D01*
X2132Y2211D01*
X2133Y2211D01*
X2134Y2211D01*
X2135Y2211D01*
X2136Y2211D01*
X2137Y2211D01*
X2138Y2211D01*
X2139Y2211D01*
X2140Y2211D01*
X2141Y2211D01*
X2142Y2211D01*
X2143Y2211D01*
X2144Y2211D01*
X2145Y2211D01*
X2146Y2211D01*
X2147Y2211D01*
X2148Y2211D01*
X2149Y2211D01*
X2150Y2211D01*
X2151Y2211D01*
X2152Y2211D01*
X2153Y2211D01*
X2154Y2211D01*
X2155Y2211D01*
X2156Y2211D01*
X2157Y2211D01*
X2158Y2211D01*
X2159Y2211D01*
X2160Y2211D01*
X2161Y2211D01*
X2162Y2211D01*
X2163Y2211D01*
X2164Y2211D01*
X2165Y2211D01*
X2166Y2211D01*
X2167Y2211D01*
X2168Y2211D01*
X2169Y2211D01*
X2170Y2211D01*
X2171Y2211D01*
X2172Y2211D01*
X2173Y2211D01*
X2174Y2211D01*
X2175Y2211D01*
X2176Y2211D01*
X2177Y2211D01*
X2178Y2211D01*
X2179Y2211D01*
X2180Y2211D01*
X2181Y2211D01*
X2182Y2211D01*
X2183Y2211D01*
X2184Y2211D01*
X2185Y2211D01*
X2186Y2211D01*
X2187Y2211D01*
X2188Y2211D01*
X2189Y2211D01*
X2190Y2211D01*
X2191Y2211D01*
X2192Y2211D01*
X2193Y2211D01*
X2194Y2211D01*
X2195Y2211D01*
X2196Y2211D01*
X2197Y2211D01*
X2198Y2211D01*
X2199Y2211D01*
X2200Y2211D01*
X2201Y2211D01*
X2202Y2211D01*
X2203Y2211D01*
X2204Y2211D01*
X2205Y2211D01*
X2206Y2211D01*
X2207Y2211D01*
X2208Y2211D01*
X2209Y2211D01*
X2210Y2211D01*
X2211Y2211D01*
X2212Y2211D01*
X2213Y2211D01*
X2214Y2211D01*
X2215Y2211D01*
X2216Y2211D01*
X2217Y2211D01*
X2218Y2211D01*
X2219Y2211D01*
X2220Y2211D01*
X2221Y2211D01*
X2222Y2211D01*
X2223Y2211D01*
X2224Y2211D01*
X2225Y2211D01*
X2226Y2211D01*
X2227Y2211D01*
X2228Y2211D01*
X2229Y2211D01*
X2230Y2211D01*
X2231Y2211D01*
X2232Y2211D01*
X2233Y2211D01*
X2234Y2211D01*
X2235Y2211D01*
X2236Y2211D01*
X2237Y2211D01*
X2238Y2211D01*
X2239Y2211D01*
X2240Y2211D01*
X2241Y2211D01*
X2242Y2211D01*
X2243Y2211D01*
X2244Y2211D01*
X2245Y2211D01*
X2246Y2211D01*
X2247Y2211D01*
X2248Y2211D01*
X2249Y2211D01*
X2250Y2211D01*
X2251Y2211D01*
X2252Y2211D01*
X2253Y2211D01*
X2254Y2211D01*
X2255Y2211D01*
X2256Y2211D01*
X2257Y2211D01*
X2258Y2211D01*
X2259Y2211D01*
X2260Y2211D01*
X2261Y2211D01*
X2262Y2211D01*
X2263Y2211D01*
X2264Y2211D01*
X2265Y2211D01*
X2266Y2211D01*
X2267Y2211D01*
X2268Y2211D01*
X2269Y2211D01*
X2270Y2211D01*
X2271Y2211D01*
X2272Y2211D01*
X2273Y2211D01*
X2274Y2211D01*
X2275Y2211D01*
X2276Y2211D01*
X2277Y2211D01*
X2278Y2211D01*
X2279Y2211D01*
X2280Y2211D01*
X2281Y2211D01*
X2282Y2211D01*
X2283Y2211D01*
X2284Y2211D01*
X2285Y2211D01*
X2286Y2211D01*
X2287Y2211D01*
X2288Y2211D01*
X2289Y2211D01*
X2290Y2211D01*
X2291Y2211D01*
X2292Y2211D01*
X2293Y2211D01*
X2294Y2211D01*
X2295Y2211D01*
X2296Y2211D01*
X2297Y2211D01*
X2298Y2211D01*
X2299Y2211D01*
X2300Y2211D01*
X2301Y2211D01*
X2302Y2211D01*
X2303Y2211D01*
X2304Y2211D01*
X2305Y2211D01*
X2306Y2211D01*
X2307Y2211D01*
X2308Y2211D01*
X2309Y2211D01*
X2310Y2211D01*
X2311Y2211D01*
X2312Y2211D01*
X2313Y2211D01*
X2314Y2211D01*
X2315Y2211D01*
X2316Y2211D01*
X2317Y2211D01*
X2318Y2211D01*
X2319Y2211D01*
X2320Y2211D01*
X2321Y2211D01*
X2322Y2211D01*
X2323Y2211D01*
X2324Y2211D01*
X2325Y2211D01*
X2326Y2211D01*
X2327Y2211D01*
X2328Y2211D01*
X2329Y2211D01*
X2330Y2211D01*
X2331Y2211D01*
X2332Y2211D01*
X2333Y2211D01*
X2334Y2211D01*
X2335Y2211D01*
X2336Y2211D01*
X2337Y2211D01*
X2338Y2211D01*
X2339Y2211D01*
X2340Y2211D01*
X2341Y2211D01*
X2342Y2211D01*
X2343Y2211D01*
X2344Y2211D01*
X2345Y2211D01*
X2346Y2211D01*
X2347Y2211D01*
X2348Y2211D01*
X2349Y2211D01*
X2350Y2211D01*
X2351Y2211D01*
X2352Y2211D01*
X2353Y2211D01*
X2354Y2211D01*
X2355Y2211D01*
X2356Y2211D01*
X2357Y2211D01*
X2358Y2211D01*
X2359Y2211D01*
X2360Y2211D01*
X2361Y2211D01*
X2362Y2211D01*
X2363Y2211D01*
X2364Y2211D01*
X2365Y2211D01*
X2366Y2211D01*
X2367Y2211D01*
X2368Y2211D01*
X2369Y2211D01*
X2370Y2211D01*
X2371Y2211D01*
X2372Y2211D01*
X2373Y2211D01*
X2374Y2211D01*
X2375Y2211D01*
X2376Y2211D01*
X2377Y2211D01*
X2378Y2211D01*
X2379Y2211D01*
X2380Y2211D01*
X2381Y2211D01*
X2382Y2211D01*
X2383Y2211D01*
X2384Y2211D01*
X2385Y2211D01*
X2386Y2211D01*
X2387Y2211D01*
X2388Y2211D01*
X2389Y2211D01*
X2390Y2211D01*
X2391Y2211D01*
X2392Y2211D01*
X2393Y2211D01*
X2394Y2211D01*
X2395Y2211D01*
X2396Y2211D01*
X2397Y2211D01*
X2398Y2211D01*
X2399Y2211D01*
X2400Y2211D01*
X2401Y2211D01*
X2402Y2211D01*
X2403Y2211D01*
X2404Y2211D01*
X2405Y2211D01*
X2406Y2211D01*
X2407Y2211D01*
X2408Y2211D01*
X2409Y2211D01*
X2410Y2211D01*
X2411Y2211D01*
X2412Y2211D01*
X2413Y2211D01*
X2414Y2211D01*
X2415Y2211D01*
X2416Y2211D01*
X2417Y2211D01*
X2418Y2211D01*
X2419Y2211D01*
X2420Y2211D01*
X2421Y2211D01*
X2422Y2211D01*
X2423Y2211D01*
X2424Y2211D01*
X2425Y2211D01*
X2426Y2211D01*
X2427Y2211D01*
X2428Y2211D01*
X2429Y2211D01*
X2430Y2211D01*
X2431Y2211D01*
X2432Y2211D01*
X2433Y2211D01*
X2434Y2211D01*
X2435Y2211D01*
X2436Y2211D01*
X2437Y2211D01*
X2438Y2211D01*
X2439Y2211D01*
X2440Y2211D01*
X2441Y2211D01*
X2442Y2211D01*
X2443Y2211D01*
X2444Y2211D01*
X2445Y2211D01*
X2446Y2211D01*
X2447Y2211D01*
X2448Y2211D01*
X2449Y2211D01*
X2450Y2211D01*
X2451Y2211D01*
X2452Y2211D01*
X2453Y2211D01*
X2454Y2211D01*
X2455Y2211D01*
X2456Y2211D01*
X2457Y2211D01*
X2458Y2211D01*
X2459Y2211D01*
X2460Y2211D01*
X2461Y2211D01*
X2462Y2211D01*
X2463Y2211D01*
X2464Y2211D01*
X2465Y2211D01*
X2466Y2211D01*
X2467Y2211D01*
X2468Y2211D01*
X2469Y2211D01*
X2470Y2211D01*
X2471Y2211D01*
X2472Y2211D01*
X2473Y2211D01*
X2474Y2211D01*
X2475Y2211D01*
X2476Y2211D01*
X2477Y2211D01*
X2478Y2211D01*
X2479Y2211D01*
X2480Y2211D01*
X2481Y2211D01*
X2482Y2211D01*
X2483Y2211D01*
X2484Y2211D01*
X2485Y2211D01*
X2486Y2211D01*
X2487Y2211D01*
X2488Y2211D01*
X2489Y2211D01*
X2490Y2211D01*
X2491Y2211D01*
X2492Y2211D01*
X2493Y2211D01*
X2494Y2211D01*
X2495Y2211D01*
X2496Y2211D01*
X2497Y2211D01*
X2498Y2211D01*
X2499Y2211D01*
X2500Y2211D01*
X2501Y2211D01*
X2502Y2211D01*
X2503Y2211D01*
X2504Y2211D01*
X2505Y2211D01*
X2506Y2211D01*
X2507Y2211D01*
X2508Y2211D01*
X2509Y2211D01*
X2510Y2211D01*
X2511Y2211D01*
X2512Y2211D01*
X2513Y2211D01*
X2514Y2211D01*
X2515Y2211D01*
X2516Y2211D01*
X2517Y2211D01*
X2518Y2211D01*
X2519Y2211D01*
X2520Y2211D01*
X2521Y2211D01*
X2522Y2211D01*
X2523Y2211D01*
X2524Y2211D01*
X2525Y2211D01*
X2526Y2211D01*
X2527Y2211D01*
X2528Y2211D01*
X2529Y2211D01*
X2530Y2211D01*
X2531Y2211D01*
X2532Y2211D01*
X2533Y2211D01*
X2534Y2211D01*
X2535Y2211D01*
X2536Y2211D01*
X2537Y2211D01*
X2538Y2211D01*
X2539Y2211D01*
X2540Y2211D01*
X2541Y2211D01*
X2542Y2211D01*
X2543Y2211D01*
X2544Y2211D01*
X2545Y2211D01*
X2546Y2211D01*
X2547Y2211D01*
X2548Y2211D01*
X2549Y2211D01*
X2550Y2211D01*
X2551Y2211D01*
X2552Y2211D01*
X2553Y2211D01*
X2554Y2211D01*
X2555Y2211D01*
X2556Y2211D01*
X2557Y2211D01*
X2558Y2211D01*
X2559Y2211D01*
X2560Y2211D01*
X2561Y2211D01*
X2562Y2211D01*
X2563Y2211D01*
X2564Y2211D01*
X2565Y2211D01*
X2566Y2211D01*
X2567Y2211D01*
X2568Y2211D01*
X2569Y2211D01*
X2570Y2211D01*
X2571Y2211D01*
X2572Y2211D01*
X2573Y2211D01*
X2574Y2211D01*
X2575Y2211D01*
X2576Y2211D01*
X2577Y2211D01*
X2578Y2211D01*
X2579Y2211D01*
X2580Y2211D01*
X2581Y2211D01*
X2582Y2211D01*
X2583Y2211D01*
X2584Y2211D01*
X2585Y2211D01*
X2586Y2211D01*
X2587Y2211D01*
X2588Y2211D01*
X2589Y2211D01*
X2590Y2211D01*
X2591Y2211D01*
X2592Y2211D01*
X2593Y2211D01*
X2594Y2211D01*
X2595Y2211D01*
X2596Y2211D01*
X2597Y2211D01*
X2598Y2211D01*
X2599Y2211D01*
X2600Y2211D01*
X2601Y2211D01*
X2602Y2211D01*
X2603Y2211D01*
X2604Y2211D01*
X2605Y2211D01*
X2606Y2211D01*
X2607Y2211D01*
X2608Y2211D01*
X2609Y2211D01*
X2610Y2211D01*
X2611Y2211D01*
X2612Y2211D01*
X2613Y2211D01*
X2614Y2211D01*
X2615Y2211D01*
X2616Y2211D01*
X2617Y2211D01*
X2618Y2211D01*
X2619Y2211D01*
X2620Y2211D01*
X2621Y2211D01*
X2622Y2211D01*
X2623Y2211D01*
X2624Y2211D01*
X2625Y2211D01*
X2626Y2211D01*
X2627Y2211D01*
X2628Y2211D01*
X2629Y2211D01*
X2630Y2211D01*
X2631Y2211D01*
X2632Y2211D01*
X2633Y2211D01*
X2634Y2211D01*
X2635Y2211D01*
X2636Y2211D01*
X2637Y2211D01*
X2638Y2211D01*
X2639Y2211D01*
X2640Y2211D01*
X2641Y2211D01*
X2642Y2211D01*
X2643Y2211D01*
X2644Y2211D01*
X2645Y2211D01*
X2646Y2211D01*
X2647Y2211D01*
X2648Y2211D01*
X2649Y2211D01*
X2650Y2211D01*
X2651Y2211D01*
X2652Y2211D01*
X2653Y2211D01*
X2654Y2211D01*
X2655Y2211D01*
X2656Y2211D01*
X2657Y2211D01*
X2658Y2211D01*
X2659Y2211D01*
X2660Y2211D01*
X2661Y2211D01*
X2662Y2211D01*
X2663Y2211D01*
X2664Y2211D01*
X2665Y2211D01*
X2666Y2211D01*
X2667Y2211D01*
X2668Y2211D01*
X2669Y2211D01*
X2670Y2211D01*
X2671Y2211D01*
X2672Y2211D01*
X2673Y2211D01*
X2674Y2211D01*
X2675Y2211D01*
X2676Y2211D01*
X2677Y2211D01*
X2678Y2211D01*
X2679Y2211D01*
X2680Y2211D01*
X2681Y2211D01*
X2682Y2211D01*
X2683Y2211D01*
X2684Y2211D01*
X2685Y2211D01*
X2686Y2211D01*
X2687Y2211D01*
X2688Y2211D01*
X2689Y2211D01*
X2690Y2211D01*
X2691Y2211D01*
X2692Y2211D01*
X2693Y2211D01*
X2694Y2211D01*
X2695Y2211D01*
X2696Y2211D01*
X2697Y2211D01*
X2698Y2211D01*
X2699Y2211D01*
X2700Y2211D01*
X2701Y2211D01*
X2702Y2211D01*
X2703Y2211D01*
X2704Y2211D01*
X2705Y2211D01*
X2706Y2211D01*
X2707Y2211D01*
X2708Y2211D01*
X2709Y2211D01*
X2710Y2211D01*
X2711Y2211D01*
X2712Y2211D01*
X2713Y2211D01*
X2714Y2211D01*
X2715Y2211D01*
X2716Y2211D01*
X2717Y2211D01*
X2718Y2211D01*
X2719Y2211D01*
X2720Y2211D01*
X2721Y2211D01*
X2722Y2211D01*
X2723Y2211D01*
X2724Y2211D01*
X2725Y2211D01*
X2726Y2211D01*
X2727Y2211D01*
X2728Y2211D01*
X2729Y2211D01*
X2730Y2211D01*
X2731Y2211D01*
X2732Y2211D01*
X2733Y2211D01*
X2734Y2211D01*
X2735Y2211D01*
X2736Y2211D01*
X2737Y2211D01*
X2738Y2211D01*
X2739Y2211D01*
X2740Y2211D01*
X2741Y2211D01*
X2742Y2211D01*
X2743Y2211D01*
X2744Y2211D01*
X2745Y2211D01*
X2746Y2211D01*
X2747Y2211D01*
X2748Y2211D01*
X2749Y2211D01*
X2750Y2211D01*
X2751Y2211D01*
X2752Y2211D01*
X2753Y2211D01*
X2754Y2211D01*
X2755Y2211D01*
X2756Y2211D01*
X2757Y2211D01*
X2758Y2211D01*
X2759Y2211D01*
X2760Y2211D01*
X2761Y2211D01*
X2762Y2211D01*
X2763Y2211D01*
X2764Y2211D01*
X2765Y2211D01*
X2766Y2211D01*
X2767Y2211D01*
X2768Y2211D01*
X2769Y2211D01*
X2770Y2211D01*
X2771Y2211D01*
X2772Y2211D01*
X2773Y2211D01*
X2774Y2211D01*
X2775Y2211D01*
X2776Y2211D01*
X2777Y2211D01*
X2778Y2211D01*
X2779Y2211D01*
X2780Y2211D01*
X2781Y2211D01*
X2782Y2211D01*
X2783Y2211D01*
X2784Y2211D01*
X2785Y2211D01*
X2786Y2211D01*
X2787Y2211D01*
X2788Y2211D01*
X2789Y2211D01*
X2790Y2211D01*
X2791Y2211D01*
X2792Y2211D01*
X2793Y2211D01*
X2794Y2211D01*
X2795Y2211D01*
X2796Y2211D01*
X2797Y2211D01*
X2798Y2211D01*
X2799Y2211D01*
X2800Y2211D01*
X2801Y2211D01*
X2802Y2211D01*
X2803Y2211D01*
X2804Y2211D01*
X2805Y2211D01*
X2806Y2211D01*
X2807Y2211D01*
X2808Y2211D01*
X2809Y2211D01*
X2810Y2211D01*
X2811Y2211D01*
X2812Y2211D01*
X2813Y2211D01*
X2814Y2211D01*
X2815Y2211D01*
X2816Y2211D01*
X2817Y2211D01*
X2818Y2211D01*
X2819Y2211D01*
X2820Y2211D01*
X2821Y2211D01*
X2822Y2211D01*
X2823Y2211D01*
X2824Y2211D01*
X2825Y2211D01*
X2826Y2211D01*
X2827Y2211D01*
X2828Y2211D01*
X2829Y2211D01*
X2830Y2211D01*
X2831Y2211D01*
X2832Y2211D01*
X2833Y2211D01*
X2834Y2211D01*
X2835Y2211D01*
X2836Y2211D01*
X2837Y2211D01*
X2838Y2211D01*
X2839Y2211D01*
X2840Y2211D01*
X2841Y2211D01*
X2842Y2211D01*
X2843Y2211D01*
X2844Y2211D01*
X2845Y2211D01*
X2846Y2211D01*
X2847Y2211D01*
X2848Y2211D01*
X2849Y2211D01*
X2850Y2211D01*
X2851Y2211D01*
X2852Y2211D01*
X2853Y2211D01*
X2854Y2211D01*
X2855Y2211D01*
X2856Y2211D01*
X2857Y2211D01*
X2858Y2211D01*
X2859Y2211D01*
X2860Y2211D01*
X2861Y2211D01*
X2862Y2211D01*
X2863Y2211D01*
X2864Y2211D01*
X2865Y2211D01*
X2866Y2211D01*
X2867Y2211D01*
X2868Y2211D01*
X2869Y2211D01*
X2870Y2211D01*
X2871Y2211D01*
X2872Y2211D01*
X2873Y2211D01*
X2874Y2211D01*
X2875Y2211D01*
X2876Y2211D01*
X2877Y2211D01*
X2878Y2211D01*
X2879Y2211D01*
X2880Y2211D01*
X2881Y2211D01*
X2882Y2211D01*
X2883Y2211D01*
X2884Y2211D01*
X2885Y2211D01*
X2886Y2211D01*
X2887Y2211D01*
X2888Y2211D01*
X2889Y2211D01*
X2890Y2211D01*
X2891Y2211D01*
X2892Y2211D01*
X2893Y2211D01*
X2894Y2211D01*
X2895Y2211D01*
X2896Y2211D01*
X2897Y2211D01*
X2898Y2211D01*
X2899Y2211D01*
X2900Y2211D01*
X2901Y2211D01*
X2902Y2211D01*
X2903Y2211D01*
X2904Y2211D01*
X2905Y2211D01*
X2906Y2211D01*
X2907Y2211D01*
X2908Y2211D01*
X2909Y2211D01*
X2910Y2211D01*
X2911Y2211D01*
X2912Y2211D01*
X2913Y2211D01*
X2914Y2211D01*
X2915Y2211D01*
X2916Y2211D01*
X2917Y2211D01*
X2918Y2211D01*
X2919Y2211D01*
X2920Y2211D01*
X2921Y2211D01*
X2922Y2211D01*
X2923Y2211D01*
X2924Y2211D01*
X2925Y2211D01*
X2926Y2211D01*
X2927Y2211D01*
X2928Y2211D01*
X2929Y2211D01*
X2930Y2211D01*
X2931Y2211D01*
X2932Y2211D01*
X2933Y2211D01*
X2934Y2211D01*
X2935Y2211D01*
X2936Y2211D01*
X2937Y2211D01*
X2938Y2211D01*
X2939Y2211D01*
X2940Y2211D01*
X2941Y2211D01*
X2942Y2211D01*
X2943Y2211D01*
X2944Y2211D01*
X2945Y2211D01*
X2946Y2211D01*
X2947Y2211D01*
X2948Y2211D01*
X2949Y2211D01*
X2950Y2211D01*
X2951Y2211D01*
X2952Y2211D01*
X2953Y2211D01*
X2954Y2211D01*
X2955Y2211D01*
X2956Y2211D01*
X2957Y2211D01*
X2958Y2211D01*
X2959Y2211D01*
X2960Y2211D01*
X2961Y2211D01*
X2962Y2211D01*
X2963Y2211D01*
X2964Y2211D01*
X2965Y2211D01*
X2966Y2211D01*
X2967Y2211D01*
X2968Y2211D01*
X2969Y2211D01*
X2970Y2211D01*
X2971Y2211D01*
X2972Y2211D01*
X2973Y2211D01*
X2974Y2211D01*
X2975Y2211D01*
X2976Y2211D01*
X2977Y2211D01*
X2978Y2211D01*
X2979Y2211D01*
X2980Y2211D01*
X2981Y2211D01*
X2982Y2211D01*
X2983Y2211D01*
X2984Y2211D01*
X2985Y2211D01*
X2986Y2211D01*
X2987Y2211D01*
X2988Y2211D01*
X2989Y2211D01*
X2990Y2211D01*
X2991Y2211D01*
X2992Y2211D01*
X2993Y2211D01*
X2994Y2211D01*
X2995Y2211D01*
X2996Y2211D01*
X2997Y2211D01*
X2998Y2211D01*
X2999Y2211D01*
X3000Y2211D01*
X3001Y2211D01*
X3002Y2211D01*
X3003Y2211D01*
X3004Y2211D01*
X3005Y2211D01*
X3006Y2211D01*
X3007Y2211D01*
X3008Y2211D01*
X3009Y2211D01*
X3010Y2211D01*
X3011Y2211D01*
X3012Y2211D01*
X3013Y2211D01*
X3014Y2211D01*
X3015Y2211D01*
X3016Y2211D01*
X3017Y2211D01*
X3018Y2211D01*
X3019Y2211D01*
X3020Y2211D01*
X3021Y2211D01*
X3022Y2211D01*
X3023Y2211D01*
X3024Y2211D01*
X3025Y2211D01*
X3026Y2211D01*
X3027Y2211D01*
X3028Y2211D01*
X3029Y2211D01*
X3030Y2211D01*
X3031Y2211D01*
X3032Y2211D01*
X3033Y2211D01*
X3034Y2211D01*
X3035Y2211D01*
X3036Y2211D01*
X3037Y2211D01*
X3038Y2211D01*
X3039Y2211D01*
X3040Y2211D01*
X3041Y2211D01*
X3042Y2211D01*
X3043Y2211D01*
X3044Y2211D01*
X3045Y2211D01*
X3046Y2211D01*
X3047Y2211D01*
X3048Y2211D01*
X3049Y2211D01*
X3050Y2211D01*
X3051Y2211D01*
X3052Y2211D01*
X3053Y2211D01*
X3054Y2211D01*
X3055Y2211D01*
X3056Y2211D01*
X3057Y2211D01*
X3058Y2211D01*
X3059Y2211D01*
X3060Y2211D01*
X3061Y2211D01*
X3062Y2211D01*
X3063Y2211D01*
X3064Y2211D01*
X3065Y2211D01*
X3066Y2211D01*
X3067Y2211D01*
X3068Y2211D01*
X3069Y2211D01*
X3070Y2211D01*
X3071Y2211D01*
X3072Y2211D01*
X3073Y2211D01*
X3074Y2211D01*
X3075Y2211D01*
X3076Y2211D01*
X3077Y2211D01*
X3078Y2211D01*
X3079Y2211D01*
X3080Y2211D01*
X3081Y2211D01*
X3082Y2211D01*
X3083Y2211D01*
X3084Y2211D01*
X3085Y2211D01*
X3086Y2211D01*
X3087Y2211D01*
X3088Y2211D01*
X3089Y2211D01*
X3090Y2211D01*
X3091Y2211D01*
X3092Y2211D01*
X3093Y2211D01*
X3094Y2211D01*
X3095Y2211D01*
X3096Y2211D01*
X3097Y2211D01*
X3098Y2211D01*
X3099Y2211D01*
X3100Y2211D01*
X3101Y2211D01*
X3102Y2211D01*
X3103Y2211D01*
X3104Y2211D01*
X3105Y2211D01*
X3106Y2211D01*
X3107Y2211D01*
X3108Y2211D01*
X3109Y2211D01*
X3110Y2211D01*
X3111Y2211D01*
X3112Y2211D01*
X3113Y2211D01*
X3114Y2211D01*
X3115Y2211D01*
X3116Y2211D01*
X3117Y2211D01*
X3118Y2211D01*
X3119Y2211D01*
X3120Y2211D01*
X3121Y2211D01*
X3122Y2211D01*
X3123Y2211D01*
X3124Y2211D01*
X3125Y2211D01*
X3126Y2211D01*
X3127Y2211D01*
X3128Y2211D01*
X3129Y2211D01*
X3130Y2211D01*
X3131Y2211D01*
X3132Y2211D01*
X3133Y2211D01*
X3134Y2211D01*
X3135Y2211D01*
X3136Y2211D01*
X3137Y2211D01*
X3138Y2211D01*
X3139Y2211D01*
X3140Y2211D01*
X3141Y2211D01*
X3142Y2211D01*
X3143Y2211D01*
X3144Y2211D01*
X3145Y2211D01*
X3146Y2211D01*
X3147Y2211D01*
X3148Y2211D01*
X3149Y2211D01*
X3150Y2211D01*
X3151Y2211D01*
X3152Y2211D01*
X3153Y2211D01*
X3154Y2211D01*
X3155Y2211D01*
X3156Y2211D01*
X3157Y2211D01*
X3158Y2211D01*
X3159Y2211D01*
X3160Y2211D01*
X3161Y2211D01*
X3162Y2211D01*
X3163Y2211D01*
X3164Y2211D01*
X3165Y2211D01*
X3166Y2211D01*
X3167Y2211D01*
X3168Y2211D01*
X3169Y2211D01*
X3170Y2211D01*
X3171Y2211D01*
X3172Y2211D01*
X3173Y2211D01*
X3174Y2211D01*
X3175Y2211D01*
X3176Y2211D01*
X3177Y2211D01*
X3178Y2211D01*
X3179Y2211D01*
X3180Y2211D01*
X3181Y2211D01*
X3182Y2211D01*
X3183Y2211D01*
X3184Y2211D01*
X3185Y2211D01*
X3186Y2211D01*
X3187Y2211D01*
X3188Y2211D01*
X3189Y2211D01*
X3190Y2211D01*
X3191Y2211D01*
X3192Y2211D01*
X3193Y2211D01*
X3194Y2211D01*
X3195Y2211D01*
X3196Y2211D01*
X3197Y2211D01*
X3198Y2211D01*
X3199Y2211D01*
X3200Y2211D01*
X3201Y2211D01*
X3202Y2211D01*
X3203Y2211D01*
X3204Y2211D01*
X3205Y2211D01*
X3206Y2211D01*
X3207Y2211D01*
X3208Y2211D01*
X3209Y2211D01*
X3210Y2211D01*
X3211Y2211D01*
X3212Y2211D01*
X3213Y2211D01*
X3214Y2211D01*
X3215Y2211D01*
X3216Y2211D01*
X3217Y2211D01*
X3218Y2211D01*
X3219Y2211D01*
X3220Y2211D01*
X3221Y2211D01*
X3222Y2211D01*
X3223Y2211D01*
X3224Y2211D01*
X3225Y2211D01*
X3226Y2211D01*
X3227Y2211D01*
X3228Y2211D01*
X3229Y2211D01*
X3230Y2211D01*
X3231Y2211D01*
X3232Y2211D01*
X3233Y2211D01*
X3234Y2211D01*
X3235Y2211D01*
X3236Y2211D01*
X3237Y2211D01*
X3238Y2211D01*
X3239Y2211D01*
X3240Y2211D01*
X3241Y2211D01*
X3242Y2211D01*
X3243Y2211D01*
X3244Y2211D01*
X3245Y2211D01*
X3246Y2210D01*
X3247Y2210D01*
X3248Y2210D01*
X3249Y2210D01*
X3250Y2210D01*
X3251Y2210D01*
X3252Y2210D01*
X3253Y2210D01*
X3254Y2209D01*
X3255Y2209D01*
X3256Y2209D01*
X3257Y2209D01*
X3258Y2209D01*
X3259Y2209D01*
X3260Y2208D01*
X3261Y2208D01*
X3262Y2208D01*
X3263Y2208D01*
X3264Y2207D01*
X3265Y2207D01*
X3266Y2207D01*
X3267Y2207D01*
X3268Y2206D01*
X3269Y2206D01*
X3270Y2206D01*
X3271Y2205D01*
X3272Y2205D01*
X3273Y2205D01*
X3274Y2204D01*
X3275Y2204D01*
X3276Y2204D01*
X3277Y2203D01*
X3278Y2203D01*
X3279Y2202D01*
X3280Y2202D01*
X3281Y2202D01*
X3282Y2201D01*
X3283Y2201D01*
X3284Y2200D01*
X3285Y2200D01*
X3286Y2199D01*
X3287Y2199D01*
X3288Y2198D01*
X3289Y2198D01*
X3290Y2197D01*
X3291Y2197D01*
X3292Y2196D01*
X3293Y2196D01*
X3294Y2195D01*
X3295Y2195D01*
X3296Y2194D01*
X3297Y2193D01*
X3298Y2193D01*
X3299Y2192D01*
X3300Y2191D01*
X3301Y2191D01*
X3302Y2190D01*
X3303Y2189D01*
X3304Y2189D01*
X3305Y2188D01*
X3306Y2187D01*
X3307Y2186D01*
X3308Y2186D01*
X3309Y2185D01*
X3310Y2184D01*
X3311Y2183D01*
X3312Y2182D01*
X3313Y2181D01*
X3314Y2181D01*
X3315Y2180D01*
X3316Y2179D01*
X3317Y2178D01*
X3318Y2177D01*
X3319Y2176D01*
X3320Y2175D01*
X3321Y2174D01*
X3322Y2173D01*
X3323Y2172D01*
X3323Y2171D01*
X3324Y2170D01*
X3325Y2169D01*
X3326Y2168D01*
X3327Y2167D01*
X3328Y2166D01*
X3328Y2165D01*
X3329Y2164D01*
X3330Y2163D01*
X3331Y2162D01*
X3331Y2161D01*
X3332Y2160D01*
X3333Y2159D01*
X3333Y2158D01*
X3334Y2157D01*
X3335Y2156D01*
X3335Y2155D01*
X3336Y2154D01*
X3336Y2153D01*
X3337Y2152D01*
X3338Y2151D01*
X3338Y2150D01*
X3339Y2149D01*
X3339Y2148D01*
X3340Y2147D01*
X3340Y2146D01*
X3341Y2145D01*
X3341Y2144D01*
X3342Y2143D01*
X3342Y2142D01*
X3343Y2141D01*
X3343Y2140D01*
X3344Y2139D01*
X3344Y2137D01*
X3345Y2136D01*
X3345Y2135D01*
X3346Y2134D01*
X3346Y2132D01*
X3347Y2131D01*
X3347Y2129D01*
X3348Y2128D01*
X3348Y2125D01*
X3349Y2124D01*
X3349Y2121D01*
X3350Y2120D01*
X3350Y2117D01*
X3351Y2116D01*
X3351Y2111D01*
X3352Y2110D01*
X3352Y2101D01*
X3353Y2100D01*
X3353Y119D01*
X3352Y118D01*
X3352Y109D01*
X3351Y108D01*
X3351Y104D01*
X3350Y103D01*
X3350Y99D01*
X3349Y98D01*
X3349Y95D01*
X3348Y94D01*
X3348Y92D01*
X3347Y91D01*
X3347Y89D01*
X3346Y88D01*
X3346Y86D01*
X3345Y85D01*
X3345Y83D01*
X3344Y82D01*
X3344Y81D01*
X3343Y80D01*
X3343Y78D01*
X3342Y77D01*
X3342Y76D01*
X3341Y75D01*
X3341Y74D01*
X3340Y73D01*
X3340Y72D01*
X3339Y71D01*
X3339Y70D01*
X3338Y69D01*
X3337Y68D01*
X3337Y67D01*
X3336Y66D01*
X3336Y65D01*
X3335Y64D01*
X3334Y63D01*
X3334Y62D01*
X3333Y61D01*
X3333Y60D01*
X3332Y59D01*
X3331Y58D01*
X3330Y57D01*
X3330Y56D01*
X3329Y55D01*
X3328Y54D01*
X3327Y53D01*
X3327Y52D01*
X3326Y51D01*
X3325Y50D01*
X3324Y49D01*
X3323Y48D01*
X3322Y47D01*
X3321Y46D01*
X3320Y45D01*
X3320Y44D01*
X3319Y43D01*
X3318Y42D01*
X3317Y41D01*
X3316Y41D01*
X3315Y40D01*
X3314Y39D01*
X3313Y38D01*
X3312Y37D01*
X3311Y36D01*
X3310Y35D01*
X3309Y34D01*
X3308Y34D01*
X3307Y33D01*
X3306Y32D01*
X3305Y31D01*
X3304Y31D01*
X3303Y30D01*
X3302Y29D01*
X3301Y28D01*
X3300Y28D01*
X3299Y27D01*
X3298Y27D01*
X3297Y26D01*
X3296Y25D01*
X3295Y25D01*
X3294Y24D01*
X3293Y24D01*
X3292Y23D01*
X3291Y22D01*
X3290Y22D01*
X3289Y21D01*
X3288Y21D01*
X3287Y20D01*
X3286Y20D01*
X3285Y19D01*
X3284Y19D01*
X3283Y19D01*
X3282Y18D01*
X3281Y18D01*
X3280Y17D01*
X3279Y17D01*
X3278Y16D01*
X3277Y16D01*
X3276Y16D01*
X3275Y15D01*
X3274Y15D01*
X3273Y15D01*
X3272Y14D01*
X3271Y14D01*
X3270Y14D01*
X3269Y13D01*
X3268Y13D01*
X3267Y13D01*
X3266Y12D01*
X3265Y12D01*
X3264Y12D01*
X3263Y12D01*
X3262Y11D01*
X3261Y11D01*
X3260Y11D01*
X3259Y11D01*
X3258Y11D01*
X3257Y10D01*
X3256Y10D01*
X3255Y10D01*
X3254Y10D01*
X3253Y10D01*
X3252Y10D01*
X3251Y9D01*
X3250Y9D01*
X3249Y9D01*
X3248Y9D01*
X3247Y9D01*
X3246Y9D01*
X3245Y9D01*
X3244Y9D01*
X3243Y9D01*
X3242Y9D01*
X3241Y8D01*
X3240Y8D01*
X3239Y8D01*
X3238Y8D01*
X3237Y8D01*
X3236Y8D01*
X3235Y8D01*
X3234Y8D01*
X3233Y8D01*
X3232Y8D01*
X3231Y8D01*
X3230Y8D01*
X3229Y8D01*
X3228Y8D01*
X3227Y8D01*
X3226Y8D01*
X3225Y8D01*
X3224Y8D01*
X3223Y8D01*
X3222Y8D01*
X3221Y8D01*
X3220Y8D01*
X3219Y8D01*
X3218Y8D01*
X3217Y8D01*
X3216Y8D01*
X3215Y8D01*
X3214Y8D01*
X3213Y8D01*
X3212Y8D01*
X3211Y8D01*
X3210Y8D01*
X3209Y8D01*
X3208Y8D01*
X3207Y8D01*
X3206Y8D01*
X3205Y8D01*
X3204Y8D01*
X3203Y8D01*
X3202Y8D01*
X3201Y8D01*
X3200Y8D01*
X3199Y8D01*
X3198Y8D01*
X3197Y8D01*
X3196Y8D01*
X3195Y8D01*
X3194Y8D01*
X3193Y8D01*
X3192Y8D01*
X3191Y8D01*
X3190Y8D01*
X3189Y8D01*
X3188Y8D01*
X3187Y8D01*
X3186Y8D01*
X3185Y8D01*
X3184Y8D01*
X3183Y8D01*
X3182Y8D01*
X3181Y8D01*
X3180Y8D01*
X3179Y8D01*
X3178Y8D01*
X3177Y8D01*
X3176Y8D01*
X3175Y8D01*
X3174Y8D01*
X3173Y8D01*
X3172Y8D01*
X3171Y8D01*
X3170Y8D01*
X3169Y8D01*
X3168Y8D01*
X3167Y8D01*
X3166Y8D01*
X3165Y8D01*
X3164Y8D01*
X3163Y8D01*
X3162Y8D01*
X3161Y8D01*
X3160Y8D01*
X3159Y8D01*
X3158Y8D01*
X3157Y8D01*
X3156Y8D01*
X3155Y8D01*
X3154Y8D01*
X3153Y8D01*
X3152Y8D01*
X3151Y8D01*
X3150Y8D01*
X3149Y8D01*
X3148Y8D01*
X3147Y8D01*
X3146Y8D01*
X3145Y8D01*
X3144Y8D01*
X3143Y8D01*
X3142Y8D01*
X3141Y8D01*
X3140Y8D01*
X3139Y8D01*
X3138Y8D01*
X3137Y8D01*
X3136Y8D01*
X3135Y8D01*
X3134Y8D01*
X3133Y8D01*
X3132Y8D01*
X3131Y8D01*
X3130Y8D01*
X3129Y8D01*
X3128Y8D01*
X3127Y8D01*
X3126Y8D01*
X3125Y8D01*
X3124Y8D01*
X3123Y8D01*
X3122Y8D01*
X3121Y8D01*
X3120Y8D01*
X3119Y8D01*
X3118Y8D01*
X3117Y8D01*
X3116Y8D01*
X3115Y8D01*
X3114Y8D01*
X3113Y8D01*
X3112Y8D01*
X3111Y8D01*
X3110Y8D01*
X3109Y8D01*
X3108Y8D01*
X3107Y8D01*
X3106Y8D01*
X3105Y8D01*
X3104Y8D01*
X3103Y8D01*
X3102Y8D01*
X3101Y8D01*
X3100Y8D01*
X3099Y8D01*
X3098Y8D01*
X3097Y8D01*
X3096Y8D01*
X3095Y8D01*
X3094Y8D01*
X3093Y8D01*
X3092Y8D01*
X3091Y8D01*
X3090Y8D01*
X3089Y8D01*
X3088Y8D01*
X3087Y8D01*
X3086Y8D01*
X3085Y8D01*
X3084Y8D01*
X3083Y8D01*
X3082Y8D01*
X3081Y8D01*
X3080Y8D01*
X3079Y8D01*
X3078Y8D01*
X3077Y8D01*
X3076Y8D01*
X3075Y8D01*
X3074Y8D01*
X3073Y8D01*
X3072Y8D01*
X3071Y8D01*
X3070Y8D01*
X3069Y8D01*
X3068Y8D01*
X3067Y8D01*
X3066Y8D01*
X3065Y8D01*
X3064Y8D01*
X3063Y8D01*
X3062Y8D01*
X3061Y8D01*
X3060Y8D01*
X3059Y8D01*
X3058Y8D01*
X3057Y8D01*
X3056Y8D01*
X3055Y8D01*
X3054Y8D01*
X3053Y8D01*
X3052Y8D01*
X3051Y8D01*
X3050Y8D01*
X3049Y8D01*
X3048Y8D01*
X3047Y8D01*
X3046Y8D01*
X3045Y8D01*
X3044Y8D01*
X3043Y8D01*
X3042Y8D01*
X3041Y8D01*
X3040Y8D01*
X3039Y8D01*
X3038Y8D01*
X3037Y8D01*
X3036Y8D01*
X3035Y8D01*
X3034Y8D01*
X3033Y8D01*
X3032Y8D01*
X3031Y8D01*
X3030Y8D01*
X3029Y8D01*
X3028Y8D01*
X3027Y8D01*
X3026Y8D01*
X3025Y8D01*
X3024Y8D01*
X3023Y8D01*
X3022Y8D01*
X3021Y8D01*
X3020Y8D01*
X3019Y8D01*
X3018Y8D01*
X3017Y8D01*
X3016Y8D01*
X3015Y8D01*
X3014Y8D01*
X3013Y8D01*
X3012Y8D01*
X3011Y8D01*
X3010Y8D01*
X3009Y8D01*
X3008Y8D01*
X3007Y8D01*
X3006Y8D01*
X3005Y8D01*
X3004Y8D01*
X3003Y8D01*
X3002Y8D01*
X3001Y8D01*
X3000Y8D01*
X2999Y8D01*
X2998Y8D01*
X2997Y8D01*
X2996Y8D01*
X2995Y8D01*
X2994Y8D01*
X2993Y8D01*
X2992Y8D01*
X2991Y8D01*
X2990Y8D01*
X2989Y8D01*
X2988Y8D01*
X2987Y8D01*
X2986Y8D01*
X2985Y8D01*
X2984Y8D01*
X2983Y8D01*
X2982Y8D01*
X2981Y8D01*
X2980Y8D01*
X2979Y8D01*
X2978Y8D01*
X2977Y8D01*
X2976Y8D01*
X2975Y8D01*
X2974Y8D01*
X2973Y8D01*
X2972Y8D01*
X2971Y8D01*
X2970Y8D01*
X2969Y8D01*
X2968Y8D01*
X2967Y8D01*
X2966Y8D01*
X2965Y8D01*
X2964Y8D01*
X2963Y8D01*
X2962Y8D01*
X2961Y8D01*
X2960Y8D01*
X2959Y8D01*
X2958Y8D01*
X2957Y8D01*
X2956Y8D01*
X2955Y8D01*
X2954Y8D01*
X2953Y8D01*
X2952Y8D01*
X2951Y8D01*
X2950Y8D01*
X2949Y8D01*
X2948Y8D01*
X2947Y8D01*
X2946Y8D01*
X2945Y8D01*
X2944Y8D01*
X2943Y8D01*
X2942Y8D01*
X2941Y8D01*
X2940Y8D01*
X2939Y8D01*
X2938Y8D01*
X2937Y8D01*
X2936Y8D01*
X2935Y8D01*
X2934Y8D01*
X2933Y8D01*
X2932Y8D01*
X2931Y8D01*
X2930Y8D01*
X2929Y8D01*
X2928Y8D01*
X2927Y8D01*
X2926Y8D01*
X2925Y8D01*
X2924Y8D01*
X2923Y8D01*
X2922Y8D01*
X2921Y8D01*
X2920Y8D01*
X2919Y8D01*
X2918Y8D01*
X2917Y8D01*
X2916Y8D01*
X2915Y8D01*
X2914Y8D01*
X2913Y8D01*
X2912Y8D01*
X2911Y8D01*
X2910Y8D01*
X2909Y8D01*
X2908Y8D01*
X2907Y8D01*
X2906Y8D01*
X2905Y8D01*
X2904Y8D01*
X2903Y8D01*
X2902Y8D01*
X2901Y8D01*
X2900Y8D01*
X2899Y8D01*
X2898Y8D01*
X2897Y8D01*
X2896Y8D01*
X2895Y8D01*
X2894Y8D01*
X2893Y8D01*
X2892Y8D01*
X2891Y8D01*
X2890Y8D01*
X2889Y8D01*
X2888Y8D01*
X2887Y8D01*
X2886Y8D01*
X2885Y8D01*
X2884Y8D01*
X2883Y8D01*
X2882Y8D01*
X2881Y8D01*
X2880Y8D01*
X2879Y8D01*
X2878Y8D01*
X2877Y8D01*
X2876Y8D01*
X2875Y8D01*
X2874Y8D01*
X2873Y8D01*
X2872Y8D01*
X2871Y8D01*
X2870Y8D01*
X2869Y8D01*
X2868Y8D01*
X2867Y8D01*
X2866Y8D01*
X2865Y8D01*
X2864Y8D01*
X2863Y8D01*
X2862Y8D01*
X2861Y8D01*
X2860Y8D01*
X2859Y8D01*
X2858Y8D01*
X2857Y8D01*
X2856Y8D01*
X2855Y8D01*
X2854Y8D01*
X2853Y8D01*
X2852Y8D01*
X2851Y8D01*
X2850Y8D01*
X2849Y8D01*
X2848Y8D01*
X2847Y8D01*
X2846Y8D01*
X2845Y8D01*
X2844Y8D01*
X2843Y8D01*
X2842Y8D01*
X2841Y8D01*
X2840Y8D01*
X2839Y8D01*
X2838Y8D01*
X2837Y8D01*
X2836Y8D01*
X2835Y8D01*
X2834Y8D01*
X2833Y8D01*
X2832Y8D01*
X2831Y8D01*
X2830Y8D01*
X2829Y8D01*
X2828Y8D01*
X2827Y8D01*
X2826Y8D01*
X2825Y8D01*
X2824Y8D01*
X2823Y8D01*
X2822Y8D01*
X2821Y8D01*
X2820Y8D01*
X2819Y8D01*
X2818Y8D01*
X2817Y8D01*
X2816Y8D01*
X2815Y8D01*
X2814Y8D01*
X2813Y8D01*
X2812Y8D01*
X2811Y8D01*
X2810Y8D01*
X2809Y8D01*
X2808Y8D01*
X2807Y8D01*
X2806Y8D01*
X2805Y8D01*
X2804Y8D01*
X2803Y8D01*
X2802Y8D01*
X2801Y8D01*
X2800Y8D01*
X2799Y8D01*
X2798Y8D01*
X2797Y8D01*
X2796Y8D01*
X2795Y8D01*
X2794Y8D01*
X2793Y8D01*
X2792Y8D01*
X2791Y8D01*
X2790Y8D01*
X2789Y8D01*
X2788Y8D01*
X2787Y8D01*
X2786Y8D01*
X2785Y8D01*
X2784Y8D01*
X2783Y8D01*
X2782Y8D01*
X2781Y8D01*
X2780Y8D01*
X2779Y8D01*
X2778Y8D01*
X2777Y8D01*
X2776Y8D01*
X2775Y8D01*
X2774Y8D01*
X2773Y8D01*
X2772Y8D01*
X2771Y8D01*
X2770Y8D01*
X2769Y8D01*
X2768Y8D01*
X2767Y8D01*
X2766Y8D01*
X2765Y8D01*
X2764Y8D01*
X2763Y8D01*
X2762Y8D01*
X2761Y8D01*
X2760Y8D01*
X2759Y8D01*
X2758Y8D01*
X2757Y8D01*
X2756Y8D01*
X2755Y8D01*
X2754Y8D01*
X2753Y8D01*
X2752Y8D01*
X2751Y8D01*
X2750Y8D01*
X2749Y8D01*
X2748Y8D01*
X2747Y8D01*
X2746Y8D01*
X2745Y8D01*
X2744Y8D01*
X2743Y8D01*
X2742Y8D01*
X2741Y8D01*
X2740Y8D01*
X2739Y8D01*
X2738Y8D01*
X2737Y8D01*
X2736Y8D01*
X2735Y8D01*
X2734Y8D01*
X2733Y8D01*
X2732Y8D01*
X2731Y8D01*
X2730Y8D01*
X2729Y8D01*
X2728Y8D01*
X2727Y8D01*
X2726Y8D01*
X2725Y8D01*
X2724Y8D01*
X2723Y8D01*
X2722Y8D01*
X2721Y8D01*
X2720Y8D01*
X2719Y8D01*
X2718Y8D01*
X2717Y8D01*
X2716Y8D01*
X2715Y8D01*
X2714Y8D01*
X2713Y8D01*
X2712Y8D01*
X2711Y8D01*
X2710Y8D01*
X2709Y8D01*
X2708Y8D01*
X2707Y8D01*
X2706Y8D01*
X2705Y8D01*
X2704Y8D01*
X2703Y8D01*
X2702Y8D01*
X2701Y8D01*
X2700Y8D01*
X2699Y8D01*
X2698Y8D01*
X2697Y8D01*
X2696Y8D01*
X2695Y8D01*
X2694Y8D01*
X2693Y8D01*
X2692Y8D01*
X2691Y8D01*
X2690Y8D01*
X2689Y8D01*
X2688Y8D01*
X2687Y8D01*
X2686Y8D01*
X2685Y8D01*
X2684Y8D01*
X2683Y8D01*
X2682Y8D01*
X2681Y8D01*
X2680Y8D01*
X2679Y8D01*
X2678Y8D01*
X2677Y8D01*
X2676Y8D01*
X2675Y8D01*
X2674Y8D01*
X2673Y8D01*
X2672Y8D01*
X2671Y8D01*
X2670Y8D01*
X2669Y8D01*
X2668Y8D01*
X2667Y8D01*
X2666Y8D01*
X2665Y8D01*
X2664Y8D01*
X2663Y8D01*
X2662Y8D01*
X2661Y8D01*
X2660Y8D01*
X2659Y8D01*
X2658Y8D01*
X2657Y8D01*
X2656Y8D01*
X2655Y8D01*
X2654Y8D01*
X2653Y8D01*
X2652Y8D01*
X2651Y8D01*
X2650Y8D01*
X2649Y8D01*
X2648Y8D01*
X2647Y8D01*
X2646Y8D01*
X2645Y8D01*
X2644Y8D01*
X2643Y8D01*
X2642Y8D01*
X2641Y8D01*
X2640Y8D01*
X2639Y8D01*
X2638Y8D01*
X2637Y8D01*
X2636Y8D01*
X2635Y8D01*
X2634Y8D01*
X2633Y8D01*
X2632Y8D01*
X2631Y8D01*
X2630Y8D01*
X2629Y8D01*
X2628Y8D01*
X2627Y8D01*
X2626Y8D01*
X2625Y8D01*
X2624Y8D01*
X2623Y8D01*
X2622Y8D01*
X2621Y8D01*
X2620Y8D01*
X2619Y8D01*
X2618Y8D01*
X2617Y8D01*
X2616Y8D01*
X2615Y8D01*
X2614Y8D01*
X2613Y8D01*
X2612Y8D01*
X2611Y8D01*
X2610Y8D01*
X2609Y8D01*
X2608Y8D01*
X2607Y8D01*
X2606Y8D01*
X2605Y8D01*
X2604Y8D01*
X2603Y8D01*
X2602Y8D01*
X2601Y8D01*
X2600Y8D01*
X2599Y8D01*
X2598Y8D01*
X2597Y8D01*
X2596Y8D01*
X2595Y8D01*
X2594Y8D01*
X2593Y8D01*
X2592Y8D01*
X2591Y8D01*
X2590Y8D01*
X2589Y8D01*
X2588Y8D01*
X2587Y8D01*
X2586Y8D01*
X2585Y8D01*
X2584Y8D01*
X2583Y8D01*
X2582Y8D01*
X2581Y8D01*
X2580Y8D01*
X2579Y8D01*
X2578Y8D01*
X2577Y8D01*
X2576Y8D01*
X2575Y8D01*
X2574Y8D01*
X2573Y8D01*
X2572Y8D01*
X2571Y8D01*
X2570Y8D01*
X2569Y8D01*
X2568Y8D01*
X2567Y8D01*
X2566Y8D01*
X2565Y8D01*
X2564Y8D01*
X2563Y8D01*
X2562Y8D01*
X2561Y8D01*
X2560Y8D01*
X2559Y8D01*
X2558Y8D01*
X2557Y8D01*
X2556Y8D01*
X2555Y8D01*
X2554Y8D01*
X2553Y8D01*
X2552Y8D01*
X2551Y8D01*
X2550Y8D01*
X2549Y8D01*
X2548Y8D01*
X2547Y8D01*
X2546Y8D01*
X2545Y8D01*
X2544Y8D01*
X2543Y8D01*
X2542Y8D01*
X2541Y8D01*
X2540Y8D01*
X2539Y8D01*
X2538Y8D01*
X2537Y8D01*
X2536Y8D01*
X2535Y8D01*
X2534Y8D01*
X2533Y8D01*
X2532Y8D01*
X2531Y8D01*
X2530Y8D01*
X2529Y8D01*
X2528Y8D01*
X2527Y8D01*
X2526Y8D01*
X2525Y8D01*
X2524Y8D01*
X2523Y8D01*
X2522Y8D01*
X2521Y8D01*
X2520Y8D01*
X2519Y8D01*
X2518Y8D01*
X2517Y8D01*
X2516Y8D01*
X2515Y8D01*
X2514Y8D01*
X2513Y8D01*
X2512Y8D01*
X2511Y8D01*
X2510Y8D01*
X2509Y8D01*
X2508Y8D01*
X2507Y8D01*
X2506Y8D01*
X2505Y8D01*
X2504Y8D01*
X2503Y8D01*
X2502Y8D01*
X2501Y8D01*
X2500Y8D01*
X2499Y8D01*
X2498Y8D01*
X2497Y8D01*
X2496Y8D01*
X2495Y8D01*
X2494Y8D01*
X2493Y8D01*
X2492Y8D01*
X2491Y8D01*
X2490Y8D01*
X2489Y8D01*
X2488Y8D01*
X2487Y8D01*
X2486Y8D01*
X2485Y8D01*
X2484Y8D01*
X2483Y8D01*
X2482Y8D01*
X2481Y8D01*
X2480Y8D01*
X2479Y8D01*
X2478Y8D01*
X2477Y8D01*
X2476Y8D01*
X2475Y8D01*
X2474Y8D01*
X2473Y8D01*
X2472Y8D01*
X2471Y8D01*
X2470Y8D01*
X2469Y8D01*
X2468Y8D01*
X2467Y8D01*
X2466Y8D01*
X2465Y8D01*
X2464Y8D01*
X2463Y8D01*
X2462Y8D01*
X2461Y8D01*
X2460Y8D01*
X2459Y8D01*
X2458Y8D01*
X2457Y8D01*
X2456Y8D01*
X2455Y8D01*
X2454Y8D01*
X2453Y8D01*
X2452Y8D01*
X2451Y8D01*
X2450Y8D01*
X2449Y8D01*
X2448Y8D01*
X2447Y8D01*
X2446Y8D01*
X2445Y8D01*
X2444Y8D01*
X2443Y8D01*
X2442Y8D01*
X2441Y8D01*
X2440Y8D01*
X2439Y8D01*
X2438Y8D01*
X2437Y8D01*
X2436Y8D01*
X2435Y8D01*
X2434Y8D01*
X2433Y8D01*
X2432Y8D01*
X2431Y8D01*
X2430Y8D01*
X2429Y8D01*
X2428Y8D01*
X2427Y8D01*
X2426Y8D01*
X2425Y8D01*
X2424Y8D01*
X2423Y8D01*
X2422Y8D01*
X2421Y8D01*
X2420Y8D01*
X2419Y8D01*
X2418Y8D01*
X2417Y8D01*
X2416Y8D01*
X2415Y8D01*
X2414Y8D01*
X2413Y8D01*
X2412Y8D01*
X2411Y8D01*
X2410Y8D01*
X2409Y8D01*
X2408Y8D01*
X2407Y8D01*
X2406Y8D01*
X2405Y8D01*
X2404Y8D01*
X2403Y8D01*
X2402Y8D01*
X2401Y8D01*
X2400Y8D01*
X2399Y8D01*
X2398Y8D01*
X2397Y8D01*
X2396Y8D01*
X2395Y8D01*
X2394Y8D01*
X2393Y8D01*
X2392Y8D01*
X2391Y8D01*
X2390Y8D01*
X2389Y8D01*
X2388Y8D01*
X2387Y8D01*
X2386Y8D01*
X2385Y8D01*
X2384Y8D01*
X2383Y8D01*
X2382Y8D01*
X2381Y8D01*
X2380Y8D01*
X2379Y8D01*
X2378Y8D01*
X2377Y8D01*
X2376Y8D01*
X2375Y8D01*
X2374Y8D01*
X2373Y8D01*
X2372Y8D01*
X2371Y8D01*
X2370Y8D01*
X2369Y8D01*
X2368Y8D01*
X2367Y8D01*
X2366Y8D01*
X2365Y8D01*
X2364Y8D01*
X2363Y8D01*
X2362Y8D01*
X2361Y8D01*
X2360Y8D01*
X2359Y8D01*
X2358Y8D01*
X2357Y8D01*
X2356Y8D01*
X2355Y8D01*
X2354Y8D01*
X2353Y8D01*
X2352Y8D01*
X2351Y8D01*
X2350Y8D01*
X2349Y8D01*
X2348Y8D01*
X2347Y8D01*
X2346Y8D01*
X2345Y8D01*
X2344Y8D01*
X2343Y8D01*
X2342Y8D01*
X2341Y8D01*
X2340Y8D01*
X2339Y8D01*
X2338Y8D01*
X2337Y8D01*
X2336Y8D01*
X2335Y8D01*
X2334Y8D01*
X2333Y8D01*
X2332Y8D01*
X2331Y8D01*
X2330Y8D01*
X2329Y8D01*
X2328Y8D01*
X2327Y8D01*
X2326Y8D01*
X2325Y8D01*
X2324Y8D01*
X2323Y8D01*
X2322Y8D01*
X2321Y8D01*
X2320Y8D01*
X2319Y8D01*
X2318Y8D01*
X2317Y8D01*
X2316Y8D01*
X2315Y8D01*
X2314Y8D01*
X2313Y8D01*
X2312Y8D01*
X2311Y8D01*
X2310Y8D01*
X2309Y8D01*
X2308Y8D01*
X2307Y8D01*
X2306Y8D01*
X2305Y8D01*
X2304Y8D01*
X2303Y8D01*
X2302Y8D01*
X2301Y8D01*
X2300Y8D01*
X2299Y8D01*
X2298Y8D01*
X2297Y8D01*
X2296Y8D01*
X2295Y8D01*
X2294Y8D01*
X2293Y8D01*
X2292Y8D01*
X2291Y8D01*
X2290Y8D01*
X2289Y8D01*
X2288Y8D01*
X2287Y8D01*
X2286Y8D01*
X2285Y8D01*
X2284Y8D01*
X2283Y8D01*
X2282Y8D01*
X2281Y8D01*
X2280Y8D01*
X2279Y8D01*
X2278Y8D01*
X2277Y8D01*
X2276Y8D01*
X2275Y8D01*
X2274Y8D01*
X2273Y8D01*
X2272Y8D01*
X2271Y8D01*
X2270Y8D01*
X2269Y8D01*
X2268Y8D01*
X2267Y8D01*
X2266Y8D01*
X2265Y8D01*
X2264Y8D01*
X2263Y8D01*
X2262Y8D01*
X2261Y8D01*
X2260Y8D01*
X2259Y8D01*
X2258Y8D01*
X2257Y8D01*
X2256Y8D01*
X2255Y8D01*
X2254Y8D01*
X2253Y8D01*
X2252Y8D01*
X2251Y8D01*
X2250Y8D01*
X2249Y8D01*
X2248Y8D01*
X2247Y8D01*
X2246Y8D01*
X2245Y8D01*
X2244Y8D01*
X2243Y8D01*
X2242Y8D01*
X2241Y8D01*
X2240Y8D01*
X2239Y8D01*
X2238Y8D01*
X2237Y8D01*
X2236Y8D01*
X2235Y8D01*
X2234Y8D01*
X2233Y8D01*
X2232Y8D01*
X2231Y8D01*
X2230Y8D01*
X2229Y8D01*
X2228Y8D01*
X2227Y8D01*
X2226Y8D01*
X2225Y8D01*
X2224Y8D01*
X2223Y8D01*
X2222Y8D01*
X2221Y8D01*
X2220Y8D01*
X2219Y8D01*
X2218Y8D01*
X2217Y8D01*
X2216Y8D01*
X2215Y8D01*
X2214Y8D01*
X2213Y8D01*
X2212Y8D01*
X2211Y8D01*
X2210Y8D01*
X2209Y8D01*
X2208Y8D01*
X2207Y8D01*
X2206Y8D01*
X2205Y8D01*
X2204Y8D01*
X2203Y8D01*
X2202Y8D01*
X2201Y8D01*
X2200Y8D01*
X2199Y8D01*
X2198Y8D01*
X2197Y8D01*
X2196Y8D01*
X2195Y8D01*
X2194Y8D01*
X2193Y8D01*
X2192Y8D01*
X2191Y8D01*
X2190Y8D01*
X2189Y8D01*
X2188Y8D01*
X2187Y8D01*
X2186Y8D01*
X2185Y8D01*
X2184Y8D01*
X2183Y8D01*
X2182Y8D01*
X2181Y8D01*
X2180Y8D01*
X2179Y8D01*
X2178Y8D01*
X2177Y8D01*
X2176Y8D01*
X2175Y8D01*
X2174Y8D01*
X2173Y8D01*
X2172Y8D01*
X2171Y8D01*
X2170Y8D01*
X2169Y8D01*
X2168Y8D01*
X2167Y8D01*
X2166Y8D01*
X2165Y8D01*
X2164Y8D01*
X2163Y8D01*
X2162Y8D01*
X2161Y8D01*
X2160Y8D01*
X2159Y8D01*
X2158Y8D01*
X2157Y8D01*
X2156Y8D01*
X2155Y8D01*
X2154Y8D01*
X2153Y8D01*
X2152Y8D01*
X2151Y8D01*
X2150Y8D01*
X2149Y8D01*
X2148Y8D01*
X2147Y8D01*
X2146Y8D01*
X2145Y8D01*
X2144Y8D01*
X2143Y8D01*
X2142Y8D01*
X2141Y8D01*
X2140Y8D01*
X2139Y8D01*
X2138Y8D01*
X2137Y8D01*
X2136Y8D01*
X2135Y8D01*
X2134Y8D01*
X2133Y8D01*
X2132Y8D01*
X2131Y8D01*
X2130Y8D01*
X2129Y8D01*
X2128Y8D01*
X2127Y8D01*
X2126Y8D01*
X2125Y8D01*
X2124Y8D01*
X2123Y8D01*
X2122Y8D01*
X2121Y8D01*
X2120Y8D01*
X2119Y8D01*
X2118Y8D01*
X2117Y8D01*
X2116Y8D01*
X2115Y8D01*
X2114Y8D01*
X2113Y8D01*
X2112Y8D01*
X2111Y8D01*
X2110Y8D01*
X2109Y8D01*
X2108Y8D01*
X2107Y8D01*
X2106Y8D01*
X2105Y8D01*
X2104Y8D01*
X2103Y8D01*
X2102Y8D01*
X2101Y8D01*
X2100Y8D01*
X2099Y8D01*
X2098Y8D01*
X2097Y8D01*
X2096Y8D01*
X2095Y8D01*
X2094Y8D01*
X2093Y8D01*
X2092Y8D01*
X2091Y8D01*
X2090Y8D01*
X2089Y8D01*
X2088Y8D01*
X2087Y8D01*
X2086Y8D01*
X2085Y8D01*
X2084Y8D01*
X2083Y8D01*
X2082Y8D01*
X2081Y8D01*
X2080Y8D01*
X2079Y8D01*
X2078Y8D01*
X2077Y8D01*
X2076Y8D01*
X2075Y8D01*
X2074Y8D01*
X2073Y8D01*
X2072Y8D01*
X2071Y8D01*
X2070Y8D01*
X2069Y8D01*
X2068Y8D01*
X2067Y8D01*
X2066Y8D01*
X2065Y8D01*
X2064Y8D01*
X2063Y8D01*
X2062Y8D01*
X2061Y8D01*
X2060Y8D01*
X2059Y8D01*
X2058Y8D01*
X2057Y8D01*
X2056Y8D01*
X2055Y8D01*
X2054Y8D01*
X2053Y8D01*
X2052Y8D01*
X2051Y8D01*
X2050Y8D01*
X2049Y8D01*
X2048Y8D01*
X2047Y8D01*
X2046Y8D01*
X2045Y8D01*
X2044Y8D01*
X2043Y8D01*
X2042Y8D01*
X2041Y8D01*
X2040Y8D01*
X2039Y8D01*
X2038Y8D01*
X2037Y8D01*
X2036Y8D01*
X2035Y8D01*
X2034Y8D01*
X2033Y8D01*
X2032Y8D01*
X2031Y8D01*
X2030Y8D01*
X2029Y8D01*
X2028Y8D01*
X2027Y8D01*
X2026Y8D01*
X2025Y8D01*
X2024Y8D01*
X2023Y8D01*
X2022Y8D01*
X2021Y8D01*
X2020Y8D01*
X2019Y8D01*
X2018Y8D01*
X2017Y8D01*
X2016Y8D01*
X2015Y8D01*
X2014Y8D01*
X2013Y8D01*
X2012Y8D01*
X2011Y8D01*
X2010Y8D01*
X2009Y8D01*
X2008Y8D01*
X2007Y8D01*
X2006Y8D01*
X2005Y8D01*
X2004Y8D01*
X2003Y8D01*
X2002Y8D01*
X2001Y8D01*
X2000Y8D01*
X1999Y8D01*
X1998Y8D01*
X1997Y8D01*
X1996Y8D01*
X1995Y8D01*
X1994Y8D01*
X1993Y8D01*
X1992Y8D01*
X1991Y8D01*
X1990Y8D01*
X1989Y8D01*
X1988Y8D01*
X1987Y8D01*
X1986Y8D01*
X1985Y8D01*
X1984Y8D01*
X1983Y8D01*
X1982Y8D01*
X1981Y8D01*
X1980Y8D01*
X1979Y8D01*
X1978Y8D01*
X1977Y8D01*
X1976Y8D01*
X1975Y8D01*
X1974Y8D01*
X1973Y8D01*
X1972Y8D01*
X1971Y8D01*
X1970Y8D01*
X1969Y8D01*
X1968Y8D01*
X1967Y8D01*
X1966Y8D01*
X1965Y8D01*
X1964Y8D01*
X1963Y8D01*
X1962Y8D01*
X1961Y8D01*
X1960Y8D01*
X1959Y8D01*
X1958Y8D01*
X1957Y8D01*
X1956Y8D01*
X1955Y8D01*
X1954Y8D01*
X1953Y8D01*
X1952Y8D01*
X1951Y8D01*
X1950Y8D01*
X1949Y8D01*
X1948Y8D01*
X1947Y8D01*
X1946Y8D01*
X1945Y8D01*
X1944Y8D01*
X1943Y8D01*
X1942Y8D01*
X1941Y8D01*
X1940Y8D01*
X1939Y8D01*
X1938Y8D01*
X1937Y8D01*
X1936Y8D01*
X1935Y8D01*
X1934Y8D01*
X1933Y8D01*
X1932Y8D01*
X1931Y8D01*
X1930Y8D01*
X1929Y8D01*
X1928Y8D01*
X1927Y8D01*
X1926Y8D01*
X1925Y8D01*
X1924Y8D01*
X1923Y8D01*
X1922Y8D01*
X1921Y8D01*
X1920Y8D01*
X1919Y8D01*
X1918Y8D01*
X1917Y8D01*
X1916Y8D01*
X1915Y8D01*
X1914Y8D01*
X1913Y8D01*
X1912Y8D01*
X1911Y8D01*
X1910Y8D01*
X1909Y8D01*
X1908Y8D01*
X1907Y8D01*
X1906Y8D01*
X1905Y8D01*
X1904Y8D01*
X1903Y8D01*
X1902Y8D01*
X1901Y8D01*
X1900Y8D01*
X1899Y8D01*
X1898Y8D01*
X1897Y8D01*
X1896Y8D01*
X1895Y8D01*
X1894Y8D01*
X1893Y8D01*
X1892Y8D01*
X1891Y8D01*
X1890Y8D01*
X1889Y8D01*
X1888Y8D01*
X1887Y8D01*
X1886Y8D01*
X1885Y8D01*
X1884Y8D01*
X1883Y8D01*
X1882Y8D01*
X1881Y8D01*
X1880Y8D01*
X1879Y8D01*
X1878Y8D01*
X1877Y8D01*
X1876Y8D01*
X1875Y8D01*
X1874Y8D01*
X1873Y8D01*
X1872Y8D01*
X1871Y8D01*
X1870Y8D01*
X1869Y8D01*
X1868Y8D01*
X1867Y8D01*
X1866Y8D01*
X1865Y8D01*
X1864Y8D01*
X1863Y8D01*
X1862Y8D01*
X1861Y8D01*
X1860Y8D01*
X1859Y8D01*
X1858Y8D01*
X1857Y8D01*
X1856Y8D01*
X1855Y8D01*
X1854Y8D01*
X1853Y8D01*
X1852Y8D01*
X1851Y8D01*
X1850Y8D01*
X1849Y8D01*
X1848Y8D01*
X1847Y8D01*
X1846Y8D01*
X1845Y8D01*
X1844Y8D01*
X1843Y8D01*
X1842Y8D01*
X1841Y8D01*
X1840Y8D01*
X1839Y8D01*
X1838Y8D01*
X1837Y8D01*
X1836Y8D01*
X1835Y8D01*
X1834Y8D01*
X1833Y8D01*
X1832Y8D01*
X1831Y8D01*
X1830Y8D01*
X1829Y8D01*
X1828Y8D01*
X1827Y8D01*
X1826Y8D01*
X1825Y8D01*
X1824Y8D01*
X1823Y8D01*
X1822Y8D01*
X1821Y8D01*
X1820Y8D01*
X1819Y8D01*
X1818Y8D01*
X1817Y8D01*
X1816Y8D01*
X1815Y8D01*
X1814Y8D01*
X1813Y8D01*
X1812Y8D01*
X1811Y8D01*
X1810Y8D01*
X1809Y8D01*
X1808Y8D01*
X1807Y8D01*
X1806Y8D01*
X1805Y8D01*
X1804Y8D01*
X1803Y8D01*
X1802Y8D01*
X1801Y8D01*
X1800Y8D01*
X1799Y8D01*
X1798Y8D01*
X1797Y8D01*
X1796Y8D01*
X1795Y8D01*
X1794Y8D01*
X1793Y8D01*
X1792Y8D01*
X1791Y8D01*
X1790Y8D01*
X1789Y8D01*
X1788Y8D01*
X1787Y8D01*
X1786Y8D01*
X1785Y8D01*
X1784Y8D01*
X1783Y8D01*
X1782Y8D01*
X1781Y8D01*
X1780Y8D01*
X1779Y8D01*
X1778Y8D01*
X1777Y8D01*
X1776Y8D01*
X1775Y8D01*
X1774Y8D01*
X1773Y8D01*
X1772Y8D01*
X1771Y8D01*
X1770Y8D01*
X1769Y8D01*
X1768Y8D01*
X1767Y8D01*
X1766Y8D01*
X1765Y8D01*
X1764Y8D01*
X1763Y8D01*
X1762Y8D01*
X1761Y8D01*
X1760Y8D01*
X1759Y8D01*
X1758Y8D01*
X1757Y8D01*
X1756Y8D01*
X1755Y8D01*
X1754Y8D01*
X1753Y8D01*
X1752Y8D01*
X1751Y8D01*
X1750Y8D01*
X1749Y8D01*
X1748Y8D01*
X1747Y8D01*
X1746Y8D01*
X1745Y8D01*
X1744Y8D01*
X1743Y8D01*
X1742Y8D01*
X1741Y8D01*
X1740Y8D01*
X1739Y8D01*
X1738Y8D01*
X1737Y8D01*
X1736Y8D01*
X1735Y8D01*
X1734Y8D01*
X1733Y8D01*
X1732Y8D01*
X1731Y8D01*
X1730Y8D01*
X1729Y8D01*
X1728Y8D01*
X1727Y8D01*
X1726Y8D01*
X1725Y8D01*
X1724Y8D01*
X1723Y8D01*
X1722Y8D01*
X1721Y8D01*
X1720Y8D01*
X1719Y8D01*
X1718Y8D01*
X1717Y8D01*
X1716Y8D01*
X1715Y8D01*
X1714Y8D01*
X1713Y8D01*
X1712Y8D01*
X1711Y8D01*
X1710Y8D01*
X1709Y8D01*
X1708Y8D01*
X1707Y8D01*
X1706Y8D01*
X1705Y8D01*
X1704Y8D01*
X1703Y8D01*
X1702Y8D01*
X1701Y8D01*
X1700Y8D01*
X1699Y8D01*
X1698Y8D01*
X1697Y8D01*
X1696Y8D01*
X1695Y8D01*
X1694Y8D01*
X1693Y8D01*
X1692Y8D01*
X1691Y8D01*
X1690Y8D01*
X1689Y8D01*
X1688Y8D01*
X1687Y8D01*
X1686Y8D01*
X1685Y8D01*
X1684Y8D01*
X1683Y8D01*
X1682Y8D01*
X1681Y8D01*
X1680Y8D01*
X1679Y8D01*
X1678Y8D01*
X1677Y8D01*
X1676Y8D01*
X1675Y8D01*
X1674Y8D01*
X1673Y8D01*
X1672Y8D01*
X1671Y8D01*
X1670Y8D01*
X1669Y8D01*
X1668Y8D01*
X1667Y8D01*
X1666Y8D01*
X1665Y8D01*
X1664Y8D01*
X1663Y8D01*
X1662Y8D01*
X1661Y8D01*
X1660Y8D01*
X1659Y8D01*
X1658Y8D01*
X1657Y8D01*
X1656Y8D01*
X1655Y8D01*
X1654Y8D01*
X1653Y8D01*
X1652Y8D01*
X1651Y8D01*
X1650Y8D01*
X1649Y8D01*
X1648Y8D01*
X1647Y8D01*
X1646Y8D01*
X1645Y8D01*
X1644Y8D01*
X1643Y8D01*
X1642Y8D01*
X1641Y8D01*
X1640Y8D01*
X1639Y8D01*
X1638Y8D01*
X1637Y8D01*
X1636Y8D01*
X1635Y8D01*
X1634Y8D01*
X1633Y8D01*
X1632Y8D01*
X1631Y8D01*
X1630Y8D01*
X1629Y8D01*
X1628Y8D01*
X1627Y8D01*
X1626Y8D01*
X1625Y8D01*
X1624Y8D01*
X1623Y8D01*
X1622Y8D01*
X1621Y8D01*
X1620Y8D01*
X1619Y8D01*
X1618Y8D01*
X1617Y8D01*
X1616Y8D01*
X1615Y8D01*
X1614Y8D01*
X1613Y8D01*
X1612Y8D01*
X1611Y8D01*
X1610Y8D01*
X1609Y8D01*
X1608Y8D01*
X1607Y8D01*
X1606Y8D01*
X1605Y8D01*
X1604Y8D01*
X1603Y8D01*
X1602Y8D01*
X1601Y8D01*
X1600Y8D01*
X1599Y8D01*
X1598Y8D01*
X1597Y8D01*
X1596Y8D01*
X1595Y8D01*
X1594Y8D01*
X1593Y8D01*
X1592Y8D01*
X1591Y8D01*
X1590Y8D01*
X1589Y8D01*
X1588Y8D01*
X1587Y8D01*
X1586Y8D01*
X1585Y8D01*
X1584Y8D01*
X1583Y8D01*
X1582Y8D01*
X1581Y8D01*
X1580Y8D01*
X1579Y8D01*
X1578Y8D01*
X1577Y8D01*
X1576Y8D01*
X1575Y8D01*
X1574Y8D01*
X1573Y8D01*
X1572Y8D01*
X1571Y8D01*
X1570Y8D01*
X1569Y8D01*
X1568Y8D01*
X1567Y8D01*
X1566Y8D01*
X1565Y8D01*
X1564Y8D01*
X1563Y8D01*
X1562Y8D01*
X1561Y8D01*
X1560Y8D01*
X1559Y8D01*
X1558Y8D01*
X1557Y8D01*
X1556Y8D01*
X1555Y8D01*
X1554Y8D01*
X1553Y8D01*
X1552Y8D01*
X1551Y8D01*
X1550Y8D01*
X1549Y8D01*
X1548Y8D01*
X1547Y8D01*
X1546Y8D01*
X1545Y8D01*
X1544Y8D01*
X1543Y8D01*
X1542Y8D01*
X1541Y8D01*
X1540Y8D01*
X1539Y8D01*
X1538Y8D01*
X1537Y8D01*
X1536Y8D01*
X1535Y8D01*
X1534Y8D01*
X1533Y8D01*
X1532Y8D01*
X1531Y8D01*
X1530Y8D01*
X1529Y8D01*
X1528Y8D01*
X1527Y8D01*
X1526Y8D01*
X1525Y8D01*
X1524Y8D01*
X1523Y8D01*
X1522Y8D01*
X1521Y8D01*
X1520Y8D01*
X1519Y8D01*
X1518Y8D01*
X1517Y8D01*
X1516Y8D01*
X1515Y8D01*
X1514Y8D01*
X1513Y8D01*
X1512Y8D01*
X1511Y8D01*
X1510Y8D01*
X1509Y8D01*
X1508Y8D01*
X1507Y8D01*
X1506Y8D01*
X1505Y8D01*
X1504Y8D01*
X1503Y8D01*
X1502Y8D01*
X1501Y8D01*
X1500Y8D01*
X1499Y8D01*
X1498Y8D01*
X1497Y8D01*
X1496Y8D01*
X1495Y8D01*
X1494Y8D01*
X1493Y8D01*
X1492Y8D01*
X1491Y8D01*
X1490Y8D01*
X1489Y8D01*
X1488Y8D01*
X1487Y8D01*
X1486Y8D01*
X1485Y8D01*
X1484Y8D01*
X1483Y8D01*
X1482Y8D01*
X1481Y8D01*
X1480Y8D01*
X1479Y8D01*
X1478Y8D01*
X1477Y8D01*
X1476Y8D01*
X1475Y8D01*
X1474Y8D01*
X1473Y8D01*
X1472Y8D01*
X1471Y8D01*
X1470Y8D01*
X1469Y8D01*
X1468Y8D01*
X1467Y8D01*
X1466Y8D01*
X1465Y8D01*
X1464Y8D01*
X1463Y8D01*
X1462Y8D01*
X1461Y8D01*
X1460Y8D01*
X1459Y8D01*
X1458Y8D01*
X1457Y8D01*
X1456Y8D01*
X1455Y8D01*
X1454Y8D01*
X1453Y8D01*
X1452Y8D01*
X1451Y8D01*
X1450Y8D01*
X1449Y8D01*
X1448Y8D01*
X1447Y8D01*
X1446Y8D01*
X1445Y8D01*
X1444Y8D01*
X1443Y8D01*
X1442Y8D01*
X1441Y8D01*
X1440Y8D01*
X1439Y8D01*
X1438Y8D01*
X1437Y8D01*
X1436Y8D01*
X1435Y8D01*
X1434Y8D01*
X1433Y8D01*
X1432Y8D01*
X1431Y8D01*
X1430Y8D01*
X1429Y8D01*
X1428Y8D01*
X1427Y8D01*
X1426Y8D01*
X1425Y8D01*
X1424Y8D01*
X1423Y8D01*
X1422Y8D01*
X1421Y8D01*
X1420Y8D01*
X1419Y8D01*
X1418Y8D01*
X1417Y8D01*
X1416Y8D01*
X1415Y8D01*
X1414Y8D01*
X1413Y8D01*
X1412Y8D01*
X1411Y8D01*
X1410Y8D01*
X1409Y8D01*
X1408Y8D01*
X1407Y8D01*
X1406Y8D01*
X1405Y8D01*
X1404Y8D01*
X1403Y8D01*
X1402Y8D01*
X1401Y8D01*
X1400Y8D01*
X1399Y8D01*
X1398Y8D01*
X1397Y8D01*
X1396Y8D01*
X1395Y8D01*
X1394Y8D01*
X1393Y8D01*
X1392Y8D01*
X1391Y8D01*
X1390Y8D01*
X1389Y8D01*
X1388Y8D01*
X1387Y8D01*
X1386Y8D01*
X1385Y8D01*
X1384Y8D01*
X1383Y8D01*
X1382Y8D01*
X1381Y8D01*
X1380Y8D01*
X1379Y8D01*
X1378Y8D01*
X1377Y8D01*
X1376Y8D01*
X1375Y8D01*
X1374Y8D01*
X1373Y8D01*
X1372Y8D01*
X1371Y8D01*
X1370Y8D01*
X1369Y8D01*
X1368Y8D01*
X1367Y8D01*
X1366Y8D01*
X1365Y8D01*
X1364Y8D01*
X1363Y8D01*
X1362Y8D01*
X1361Y8D01*
X1360Y8D01*
X1359Y8D01*
X1358Y8D01*
X1357Y8D01*
X1356Y8D01*
X1355Y8D01*
X1354Y8D01*
X1353Y8D01*
X1352Y8D01*
X1351Y8D01*
X1350Y8D01*
X1349Y8D01*
X1348Y8D01*
X1347Y8D01*
X1346Y8D01*
X1345Y8D01*
X1344Y8D01*
X1343Y8D01*
X1342Y8D01*
X1341Y8D01*
X1340Y8D01*
X1339Y8D01*
X1338Y8D01*
X1337Y8D01*
X1336Y8D01*
X1335Y8D01*
X1334Y8D01*
X1333Y8D01*
X1332Y8D01*
X1331Y8D01*
X1330Y8D01*
X1329Y8D01*
X1328Y8D01*
X1327Y8D01*
X1326Y8D01*
X1325Y8D01*
X1324Y8D01*
X1323Y8D01*
X1322Y8D01*
X1321Y8D01*
X1320Y8D01*
X1319Y8D01*
X1318Y8D01*
X1317Y8D01*
X1316Y8D01*
X1315Y8D01*
X1314Y8D01*
X1313Y8D01*
X1312Y8D01*
X1311Y8D01*
X1310Y8D01*
X1309Y8D01*
X1308Y8D01*
X1307Y8D01*
X1306Y8D01*
X1305Y8D01*
X1304Y8D01*
X1303Y8D01*
X1302Y8D01*
X1301Y8D01*
X1300Y8D01*
X1299Y8D01*
X1298Y8D01*
X1297Y8D01*
X1296Y8D01*
X1295Y8D01*
X1294Y8D01*
X1293Y8D01*
X1292Y8D01*
X1291Y8D01*
X1290Y8D01*
X1289Y8D01*
X1288Y8D01*
X1287Y8D01*
X1286Y8D01*
X1285Y8D01*
X1284Y8D01*
X1283Y8D01*
X1282Y8D01*
X1281Y8D01*
X1280Y8D01*
X1279Y8D01*
X1278Y8D01*
X1277Y8D01*
X1276Y8D01*
X1275Y8D01*
X1274Y8D01*
X1273Y8D01*
X1272Y8D01*
X1271Y8D01*
X1270Y8D01*
X1269Y8D01*
X1268Y8D01*
X1267Y8D01*
X1266Y8D01*
X1265Y8D01*
X1264Y8D01*
X1263Y8D01*
X1262Y8D01*
X1261Y8D01*
X1260Y8D01*
X1259Y8D01*
X1258Y8D01*
X1257Y8D01*
X1256Y8D01*
X1255Y8D01*
X1254Y8D01*
X1253Y8D01*
X1252Y8D01*
X1251Y8D01*
X1250Y8D01*
X1249Y8D01*
X1248Y8D01*
X1247Y8D01*
X1246Y8D01*
X1245Y8D01*
X1244Y8D01*
X1243Y8D01*
X1242Y8D01*
X1241Y8D01*
X1240Y8D01*
X1239Y8D01*
X1238Y8D01*
X1237Y8D01*
X1236Y8D01*
X1235Y8D01*
X1234Y8D01*
X1233Y8D01*
X1232Y8D01*
X1231Y8D01*
X1230Y8D01*
X1229Y8D01*
X1228Y8D01*
X1227Y8D01*
X1226Y8D01*
X1225Y8D01*
X1224Y8D01*
X1223Y8D01*
X1222Y8D01*
X1221Y8D01*
X1220Y8D01*
X1219Y8D01*
X1218Y8D01*
X1217Y8D01*
X1216Y8D01*
X1215Y8D01*
X1214Y8D01*
X1213Y8D01*
X1212Y8D01*
X1211Y8D01*
X1210Y8D01*
X1209Y8D01*
X1208Y8D01*
X1207Y8D01*
X1206Y8D01*
X1205Y8D01*
X1204Y8D01*
X1203Y8D01*
X1202Y8D01*
X1201Y8D01*
X1200Y8D01*
X1199Y8D01*
X1198Y8D01*
X1197Y8D01*
X1196Y8D01*
X1195Y8D01*
X1194Y8D01*
X1193Y8D01*
X1192Y8D01*
X1191Y8D01*
X1190Y8D01*
X1189Y8D01*
X1188Y8D01*
X1187Y8D01*
X1186Y8D01*
X1185Y8D01*
X1184Y8D01*
X1183Y8D01*
X1182Y8D01*
X1181Y8D01*
X1180Y8D01*
X1179Y8D01*
X1178Y8D01*
X1177Y8D01*
X1176Y8D01*
X1175Y8D01*
X1174Y8D01*
X1173Y8D01*
X1172Y8D01*
X1171Y8D01*
X1170Y8D01*
X1169Y8D01*
X1168Y8D01*
X1167Y8D01*
X1166Y8D01*
X1165Y8D01*
X1164Y8D01*
X1163Y8D01*
X1162Y8D01*
X1161Y8D01*
X1160Y8D01*
X1159Y8D01*
X1158Y8D01*
X1157Y8D01*
X1156Y8D01*
X1155Y8D01*
X1154Y8D01*
X1153Y8D01*
X1152Y8D01*
X1151Y8D01*
X1150Y8D01*
X1149Y8D01*
X1148Y8D01*
X1147Y8D01*
X1146Y8D01*
X1145Y8D01*
X1144Y8D01*
X1143Y8D01*
X1142Y8D01*
X1141Y8D01*
X1140Y8D01*
X1139Y8D01*
X1138Y8D01*
X1137Y8D01*
X1136Y8D01*
X1135Y8D01*
X1134Y8D01*
X1133Y8D01*
X1132Y8D01*
X1131Y8D01*
X1130Y8D01*
X1129Y8D01*
X1128Y8D01*
X1127Y8D01*
X1126Y8D01*
X1125Y8D01*
X1124Y8D01*
X1123Y8D01*
X1122Y8D01*
X1121Y8D01*
X1120Y8D01*
X1119Y8D01*
X1118Y8D01*
X1117Y8D01*
X1116Y8D01*
X1115Y8D01*
X1114Y8D01*
X1113Y8D01*
X1112Y8D01*
X1111Y8D01*
X1110Y8D01*
X1109Y8D01*
X1108Y8D01*
X1107Y8D01*
X1106Y8D01*
X1105Y8D01*
X1104Y8D01*
X1103Y8D01*
X1102Y8D01*
X1101Y8D01*
X1100Y8D01*
X1099Y8D01*
X1098Y8D01*
X1097Y8D01*
X1096Y8D01*
X1095Y8D01*
X1094Y8D01*
X1093Y8D01*
X1092Y8D01*
X1091Y8D01*
X1090Y8D01*
X1089Y8D01*
X1088Y8D01*
X1087Y8D01*
X1086Y8D01*
X1085Y8D01*
X1084Y8D01*
X1083Y8D01*
X1082Y8D01*
X1081Y8D01*
X1080Y8D01*
X1079Y8D01*
X1078Y8D01*
X1077Y8D01*
X1076Y8D01*
X1075Y8D01*
X1074Y8D01*
X1073Y8D01*
X1072Y8D01*
X1071Y8D01*
X1070Y8D01*
X1069Y8D01*
X1068Y8D01*
X1067Y8D01*
X1066Y8D01*
X1065Y8D01*
X1064Y8D01*
X1063Y8D01*
X1062Y8D01*
X1061Y8D01*
X1060Y8D01*
X1059Y8D01*
X1058Y8D01*
X1057Y8D01*
X1056Y8D01*
X1055Y8D01*
X1054Y8D01*
X1053Y8D01*
X1052Y8D01*
X1051Y8D01*
X1050Y8D01*
X1049Y8D01*
X1048Y8D01*
X1047Y8D01*
X1046Y8D01*
X1045Y8D01*
X1044Y8D01*
X1043Y8D01*
X1042Y8D01*
X1041Y8D01*
X1040Y8D01*
X1039Y8D01*
X1038Y8D01*
X1037Y8D01*
X1036Y8D01*
X1035Y8D01*
X1034Y8D01*
X1033Y8D01*
X1032Y8D01*
X1031Y8D01*
X1030Y8D01*
X1029Y8D01*
X1028Y8D01*
X1027Y8D01*
X1026Y8D01*
X1025Y8D01*
X1024Y8D01*
X1023Y8D01*
X1022Y8D01*
X1021Y8D01*
X1020Y8D01*
X1019Y8D01*
X1018Y8D01*
X1017Y8D01*
X1016Y8D01*
X1015Y8D01*
X1014Y8D01*
X1013Y8D01*
X1012Y8D01*
X1011Y8D01*
X1010Y8D01*
X1009Y8D01*
X1008Y8D01*
X1007Y8D01*
X1006Y8D01*
X1005Y8D01*
X1004Y8D01*
X1003Y8D01*
X1002Y8D01*
X1001Y8D01*
X1000Y8D01*
X999Y8D01*
X998Y8D01*
X997Y8D01*
X996Y8D01*
X995Y8D01*
X994Y8D01*
X993Y8D01*
X992Y8D01*
X991Y8D01*
X990Y8D01*
X989Y8D01*
X988Y8D01*
X987Y8D01*
X986Y8D01*
X985Y8D01*
X984Y8D01*
X983Y8D01*
X982Y8D01*
X981Y8D01*
X980Y8D01*
X979Y8D01*
X978Y8D01*
X977Y8D01*
X976Y8D01*
X975Y8D01*
X974Y8D01*
X973Y8D01*
X972Y8D01*
X971Y8D01*
X970Y8D01*
X969Y8D01*
X968Y8D01*
X967Y8D01*
X966Y8D01*
X965Y8D01*
X964Y8D01*
X963Y8D01*
X962Y8D01*
X961Y8D01*
X960Y8D01*
X959Y8D01*
X958Y8D01*
X957Y8D01*
X956Y8D01*
X955Y8D01*
X954Y8D01*
X953Y8D01*
X952Y8D01*
X951Y8D01*
X950Y8D01*
X949Y8D01*
X948Y8D01*
X947Y8D01*
X946Y8D01*
X945Y8D01*
X944Y8D01*
X943Y8D01*
X942Y8D01*
X941Y8D01*
X940Y8D01*
X939Y8D01*
X938Y8D01*
X937Y8D01*
X936Y8D01*
X935Y8D01*
X934Y8D01*
X933Y8D01*
X932Y8D01*
X931Y8D01*
X930Y8D01*
X929Y8D01*
X928Y8D01*
X927Y8D01*
X926Y8D01*
X925Y8D01*
X924Y8D01*
X923Y8D01*
X922Y8D01*
X921Y8D01*
X920Y8D01*
X919Y8D01*
X918Y8D01*
X917Y8D01*
X916Y8D01*
X915Y8D01*
X914Y8D01*
X913Y8D01*
X912Y8D01*
X911Y8D01*
X910Y8D01*
X909Y8D01*
X908Y8D01*
X907Y8D01*
X906Y8D01*
X905Y8D01*
X904Y8D01*
X903Y8D01*
X902Y8D01*
X901Y8D01*
X900Y8D01*
X899Y8D01*
X898Y8D01*
X897Y8D01*
X896Y8D01*
X895Y8D01*
X894Y8D01*
X893Y8D01*
X892Y8D01*
X891Y8D01*
X890Y8D01*
X889Y8D01*
X888Y8D01*
X887Y8D01*
X886Y8D01*
X885Y8D01*
X884Y8D01*
X883Y8D01*
X882Y8D01*
X881Y8D01*
X880Y8D01*
X879Y8D01*
X878Y8D01*
X877Y8D01*
X876Y8D01*
X875Y8D01*
X874Y8D01*
X873Y8D01*
X872Y8D01*
X871Y8D01*
X870Y8D01*
X869Y8D01*
X868Y8D01*
X867Y8D01*
X866Y8D01*
X865Y8D01*
X864Y8D01*
X863Y8D01*
X862Y8D01*
X861Y8D01*
X860Y8D01*
X859Y8D01*
X858Y8D01*
X857Y8D01*
X856Y8D01*
X855Y8D01*
X854Y8D01*
X853Y8D01*
X852Y8D01*
X851Y8D01*
X850Y8D01*
X849Y8D01*
X848Y8D01*
X847Y8D01*
X846Y8D01*
X845Y8D01*
X844Y8D01*
X843Y8D01*
X842Y8D01*
X841Y8D01*
X840Y8D01*
X839Y8D01*
X838Y8D01*
X837Y8D01*
X836Y8D01*
X835Y8D01*
X834Y8D01*
X833Y8D01*
X832Y8D01*
X831Y8D01*
X830Y8D01*
X829Y8D01*
X828Y8D01*
X827Y8D01*
X826Y8D01*
X825Y8D01*
X824Y8D01*
X823Y8D01*
X822Y8D01*
X821Y8D01*
X820Y8D01*
X819Y8D01*
X818Y8D01*
X817Y8D01*
X816Y8D01*
X815Y8D01*
X814Y8D01*
X813Y8D01*
X812Y8D01*
X811Y8D01*
X810Y8D01*
X809Y8D01*
X808Y8D01*
X807Y8D01*
X806Y8D01*
X805Y8D01*
X804Y8D01*
X803Y8D01*
X802Y8D01*
X801Y8D01*
X800Y8D01*
X799Y8D01*
X798Y8D01*
X797Y8D01*
X796Y8D01*
X795Y8D01*
X794Y8D01*
X793Y8D01*
X792Y8D01*
X791Y8D01*
X790Y8D01*
X789Y8D01*
X788Y8D01*
X787Y8D01*
X786Y8D01*
X785Y8D01*
X784Y8D01*
X783Y8D01*
X782Y8D01*
X781Y8D01*
X780Y8D01*
X779Y8D01*
X778Y8D01*
X777Y8D01*
X776Y8D01*
X775Y8D01*
X774Y8D01*
X773Y8D01*
X772Y8D01*
X771Y8D01*
X770Y8D01*
X769Y8D01*
X768Y8D01*
X767Y8D01*
X766Y8D01*
X765Y8D01*
X764Y8D01*
X763Y8D01*
X762Y8D01*
X761Y8D01*
X760Y8D01*
X759Y8D01*
X758Y8D01*
X757Y8D01*
X756Y8D01*
X755Y8D01*
X754Y8D01*
X753Y8D01*
X752Y8D01*
X751Y8D01*
X750Y8D01*
X749Y8D01*
X748Y8D01*
X747Y8D01*
X746Y8D01*
X745Y8D01*
X744Y8D01*
X743Y8D01*
X742Y8D01*
X741Y8D01*
X740Y8D01*
X739Y8D01*
X738Y8D01*
X737Y8D01*
X736Y8D01*
X735Y8D01*
X734Y8D01*
X733Y8D01*
X732Y8D01*
X731Y8D01*
X730Y8D01*
X729Y8D01*
X728Y8D01*
X727Y8D01*
X726Y8D01*
X725Y8D01*
X724Y8D01*
X723Y8D01*
X722Y8D01*
X721Y8D01*
X720Y8D01*
X719Y8D01*
X718Y8D01*
X717Y8D01*
X716Y8D01*
X715Y8D01*
X714Y8D01*
X713Y8D01*
X712Y8D01*
X711Y8D01*
X710Y8D01*
X709Y8D01*
X708Y8D01*
X707Y8D01*
X706Y8D01*
X705Y8D01*
X704Y8D01*
X703Y8D01*
X702Y8D01*
X701Y8D01*
X700Y8D01*
X699Y8D01*
X698Y8D01*
X697Y8D01*
X696Y8D01*
X695Y8D01*
X694Y8D01*
X693Y8D01*
X692Y8D01*
X691Y8D01*
X690Y8D01*
X689Y8D01*
X688Y8D01*
X687Y8D01*
X686Y8D01*
X685Y8D01*
X684Y8D01*
X683Y8D01*
X682Y8D01*
X681Y8D01*
X680Y8D01*
X679Y8D01*
X678Y8D01*
X677Y8D01*
X676Y8D01*
X675Y8D01*
X674Y8D01*
X673Y8D01*
X672Y8D01*
X671Y8D01*
X670Y8D01*
X669Y8D01*
X668Y8D01*
X667Y8D01*
X666Y8D01*
X665Y8D01*
X664Y8D01*
X663Y8D01*
X662Y8D01*
X661Y8D01*
X660Y8D01*
X659Y8D01*
X658Y8D01*
X657Y8D01*
X656Y8D01*
X655Y8D01*
X654Y8D01*
X653Y8D01*
X652Y8D01*
X651Y8D01*
X650Y8D01*
X649Y8D01*
X648Y8D01*
X647Y8D01*
X646Y8D01*
X645Y8D01*
X644Y8D01*
X643Y8D01*
X642Y8D01*
X641Y8D01*
X640Y8D01*
X639Y8D01*
X638Y8D01*
X637Y8D01*
X636Y8D01*
X635Y8D01*
X634Y8D01*
X633Y8D01*
X632Y8D01*
X631Y8D01*
X630Y8D01*
X629Y8D01*
X628Y8D01*
X627Y8D01*
X626Y8D01*
X625Y8D01*
X624Y8D01*
X623Y8D01*
X622Y8D01*
X621Y8D01*
X620Y8D01*
X619Y8D01*
X618Y8D01*
X617Y8D01*
X616Y8D01*
X615Y8D01*
X614Y8D01*
X613Y8D01*
X612Y8D01*
X611Y8D01*
X610Y8D01*
X609Y8D01*
X608Y8D01*
X607Y8D01*
X606Y8D01*
X605Y8D01*
X604Y8D01*
X603Y8D01*
X602Y8D01*
X601Y8D01*
X600Y8D01*
X599Y8D01*
X598Y8D01*
X597Y8D01*
X596Y8D01*
X595Y8D01*
X594Y8D01*
X593Y8D01*
X592Y8D01*
X591Y8D01*
X590Y8D01*
X589Y8D01*
X588Y8D01*
X587Y8D01*
X586Y8D01*
X585Y8D01*
X584Y8D01*
X583Y8D01*
X582Y8D01*
X581Y8D01*
X580Y8D01*
X579Y8D01*
X578Y8D01*
X577Y8D01*
X576Y8D01*
X575Y8D01*
X574Y8D01*
X573Y8D01*
X572Y8D01*
X571Y8D01*
X570Y8D01*
X569Y8D01*
X568Y8D01*
X567Y8D01*
X566Y8D01*
X565Y8D01*
X564Y8D01*
X563Y8D01*
X562Y8D01*
X561Y8D01*
X560Y8D01*
X559Y8D01*
X558Y8D01*
X557Y8D01*
X556Y8D01*
X555Y8D01*
X554Y8D01*
X553Y8D01*
X552Y8D01*
X551Y8D01*
X550Y8D01*
X549Y8D01*
X548Y8D01*
X547Y8D01*
X546Y8D01*
X545Y8D01*
X544Y8D01*
X543Y8D01*
X542Y8D01*
X541Y8D01*
X540Y8D01*
X539Y8D01*
X538Y8D01*
X537Y8D01*
X536Y8D01*
X535Y8D01*
X534Y8D01*
X533Y8D01*
X532Y8D01*
X531Y8D01*
X530Y8D01*
X529Y8D01*
X528Y8D01*
X527Y8D01*
X526Y8D01*
X525Y8D01*
X524Y8D01*
X523Y8D01*
X522Y8D01*
X521Y8D01*
X520Y8D01*
X519Y8D01*
X518Y8D01*
X517Y8D01*
X516Y8D01*
X515Y8D01*
X514Y8D01*
X513Y8D01*
X512Y8D01*
X511Y8D01*
X510Y8D01*
X509Y8D01*
X508Y8D01*
X507Y8D01*
X506Y8D01*
X505Y8D01*
X504Y8D01*
X503Y8D01*
X502Y8D01*
X501Y8D01*
X500Y8D01*
X499Y8D01*
X498Y8D01*
X497Y8D01*
X496Y8D01*
X495Y8D01*
X494Y8D01*
X493Y8D01*
X492Y8D01*
X491Y8D01*
X490Y8D01*
X489Y8D01*
X488Y8D01*
X487Y8D01*
X486Y8D01*
X485Y8D01*
X484Y8D01*
X483Y8D01*
X482Y8D01*
X481Y8D01*
X480Y8D01*
X479Y8D01*
X478Y8D01*
X477Y8D01*
X476Y8D01*
X475Y8D01*
X474Y8D01*
X473Y8D01*
X472Y8D01*
X471Y8D01*
X470Y8D01*
X469Y8D01*
X468Y8D01*
X467Y8D01*
X466Y8D01*
X465Y8D01*
X464Y8D01*
X463Y8D01*
X462Y8D01*
X461Y8D01*
X460Y8D01*
X459Y8D01*
X458Y8D01*
X457Y8D01*
X456Y8D01*
X455Y8D01*
X454Y8D01*
X453Y8D01*
X452Y8D01*
X451Y8D01*
X450Y8D01*
X449Y8D01*
X448Y8D01*
X447Y8D01*
X446Y8D01*
X445Y8D01*
X444Y8D01*
X443Y8D01*
X442Y8D01*
X441Y8D01*
X440Y8D01*
X439Y8D01*
X438Y8D01*
X437Y8D01*
X436Y8D01*
X435Y8D01*
X434Y8D01*
X433Y8D01*
X432Y8D01*
X431Y8D01*
X430Y8D01*
X429Y8D01*
X428Y8D01*
X427Y8D01*
X426Y8D01*
X425Y8D01*
X424Y8D01*
X423Y8D01*
X422Y8D01*
X421Y8D01*
X420Y8D01*
X419Y8D01*
X418Y8D01*
X417Y8D01*
X416Y8D01*
X415Y8D01*
X414Y8D01*
X413Y8D01*
X412Y8D01*
X411Y8D01*
X410Y8D01*
X409Y8D01*
X408Y8D01*
X407Y8D01*
X406Y8D01*
X405Y8D01*
X404Y8D01*
X403Y8D01*
X402Y8D01*
X401Y8D01*
X400Y8D01*
X399Y8D01*
X398Y8D01*
X397Y8D01*
X396Y8D01*
X395Y8D01*
X394Y8D01*
X393Y8D01*
X392Y8D01*
X391Y8D01*
X390Y8D01*
X389Y8D01*
X388Y8D01*
X387Y8D01*
X386Y8D01*
X385Y8D01*
X384Y8D01*
X383Y8D01*
X382Y8D01*
X381Y8D01*
X380Y8D01*
X379Y8D01*
X378Y8D01*
X377Y8D01*
X376Y8D01*
X375Y8D01*
X374Y8D01*
X373Y8D01*
X372Y8D01*
X371Y8D01*
X370Y8D01*
X369Y8D01*
X368Y8D01*
X367Y8D01*
X366Y8D01*
X365Y8D01*
X364Y8D01*
X363Y8D01*
X362Y8D01*
X361Y8D01*
X360Y8D01*
X359Y8D01*
X358Y8D01*
X357Y8D01*
X356Y8D01*
X355Y8D01*
X354Y8D01*
X353Y8D01*
X352Y8D01*
X351Y8D01*
X350Y8D01*
X349Y8D01*
X348Y8D01*
X347Y8D01*
X346Y8D01*
X345Y8D01*
X344Y8D01*
X343Y8D01*
X342Y8D01*
X341Y8D01*
X340Y8D01*
X339Y8D01*
X338Y8D01*
X337Y8D01*
X336Y8D01*
X335Y8D01*
X334Y8D01*
X333Y8D01*
X332Y8D01*
X331Y8D01*
X330Y8D01*
X329Y8D01*
X328Y8D01*
X327Y8D01*
X326Y8D01*
X325Y8D01*
X324Y8D01*
X323Y8D01*
X322Y8D01*
X321Y8D01*
X320Y8D01*
X319Y8D01*
X318Y8D01*
X317Y8D01*
X316Y8D01*
X315Y8D01*
X314Y8D01*
X313Y8D01*
X312Y8D01*
X311Y8D01*
X310Y8D01*
X309Y8D01*
X308Y8D01*
X307Y8D01*
X306Y8D01*
X305Y8D01*
X304Y8D01*
X303Y8D01*
X302Y8D01*
X301Y8D01*
X300Y8D01*
X299Y8D01*
X298Y8D01*
X297Y8D01*
X296Y8D01*
X295Y8D01*
X294Y8D01*
X293Y8D01*
X292Y8D01*
X291Y8D01*
X290Y8D01*
X289Y8D01*
X288Y8D01*
X287Y8D01*
X286Y8D01*
X285Y8D01*
X284Y8D01*
X283Y8D01*
X282Y8D01*
X281Y8D01*
X280Y8D01*
X279Y8D01*
X278Y8D01*
X277Y8D01*
X276Y8D01*
X275Y8D01*
X274Y8D01*
X273Y8D01*
X272Y8D01*
X271Y8D01*
X270Y8D01*
X269Y8D01*
X268Y8D01*
X267Y8D01*
X266Y8D01*
X265Y8D01*
X264Y8D01*
X263Y8D01*
X262Y8D01*
X261Y8D01*
X260Y8D01*
X259Y8D01*
X258Y8D01*
X257Y8D01*
X256Y8D01*
X255Y8D01*
X254Y8D01*
X253Y8D01*
X252Y8D01*
X251Y8D01*
X250Y8D01*
X249Y8D01*
X248Y8D01*
X247Y8D01*
X246Y8D01*
X245Y8D01*
X244Y8D01*
X243Y8D01*
X242Y8D01*
X241Y8D01*
X240Y8D01*
X239Y8D01*
X238Y8D01*
X237Y8D01*
X236Y8D01*
X235Y8D01*
X234Y8D01*
X233Y8D01*
X232Y8D01*
X231Y8D01*
X230Y8D01*
X229Y8D01*
X228Y8D01*
X227Y8D01*
X226Y8D01*
X225Y8D01*
X224Y8D01*
X223Y8D01*
X222Y8D01*
X221Y8D01*
X220Y8D01*
X219Y8D01*
X218Y8D01*
X217Y8D01*
X216Y8D01*
X215Y8D01*
X214Y8D01*
X213Y8D01*
X212Y8D01*
X211Y8D01*
X210Y8D01*
X209Y8D01*
X208Y8D01*
X207Y8D01*
X206Y8D01*
X205Y8D01*
X204Y8D01*
X203Y8D01*
X202Y8D01*
X201Y8D01*
X200Y8D01*
X199Y8D01*
X198Y8D01*
X197Y8D01*
X196Y8D01*
X195Y8D01*
X194Y8D01*
X193Y8D01*
X192Y8D01*
X191Y8D01*
X190Y8D01*
X189Y8D01*
X188Y8D01*
X187Y8D01*
X186Y8D01*
X185Y8D01*
X184Y8D01*
X183Y8D01*
X182Y8D01*
X181Y8D01*
X180Y8D01*
X179Y8D01*
X178Y8D01*
X177Y8D01*
X176Y8D01*
X175Y8D01*
X174Y8D01*
X173Y8D01*
X172Y8D01*
X171Y8D01*
X170Y8D01*
X169Y8D01*
X168Y8D01*
X167Y8D01*
X166Y8D01*
X165Y8D01*
X164Y8D01*
X163Y8D01*
X162Y8D01*
X161Y8D01*
X160Y8D01*
X159Y8D01*
X158Y8D01*
X157Y8D01*
X156Y8D01*
X155Y8D01*
X154Y8D01*
X153Y8D01*
X152Y8D01*
X151Y8D01*
X150Y8D01*
X149Y8D01*
X148Y8D01*
X147Y8D01*
X146Y8D01*
X145Y8D01*
X144Y8D01*
X143Y8D01*
X142Y8D01*
X141Y8D01*
X140Y8D01*
X139Y8D01*
X138Y8D01*
X137Y8D01*
X136Y8D01*
X135Y8D01*
X134Y8D01*
X133Y8D01*
X132Y8D01*
X131Y8D01*
X130Y8D01*
X129Y8D01*
X128Y8D01*
X127Y8D01*
X126Y8D01*
X125Y8D01*
X124Y8D01*
X123Y8D01*
X122Y8D01*
X121Y8D01*
X120Y8D01*
X119Y8D01*
X118Y9D01*
X117Y9D01*
X116Y9D01*
X115Y9D01*
X114Y9D01*
X113Y9D01*
X112Y9D01*
X111Y9D01*
X110Y9D01*
X109Y9D01*
X108Y10D01*
X107Y10D01*
X106Y10D01*
X105Y10D01*
X104Y10D01*
X103Y10D01*
X102Y11D01*
X101Y11D01*
X100Y11D01*
X99Y11D01*
X98Y11D01*
X97Y12D01*
X96Y12D01*
X95Y12D01*
X94Y13D01*
X93Y13D01*
X92Y13D01*
X91Y13D01*
X90Y14D01*
X89Y14D01*
X88Y14D01*
X87Y15D01*
X86Y15D01*
X85Y15D01*
X84Y16D01*
X83Y16D01*
X82Y17D01*
X81Y17D01*
X80Y17D01*
X79Y18D01*
X78Y18D01*
X77Y19D01*
X76Y19D01*
X75Y20D01*
X74Y20D01*
X73Y20D01*
X72Y21D01*
X71Y22D01*
X70Y22D01*
X69Y23D01*
X68Y23D01*
X67Y24D01*
X66Y24D01*
X65Y25D01*
X64Y25D01*
X63Y26D01*
X62Y27D01*
X61Y27D01*
X60Y28D01*
X59Y29D01*
X58Y29D01*
X57Y30D01*
X56Y31D01*
X55Y31D01*
X54Y32D01*
X53Y33D01*
X52Y34D01*
X51Y35D01*
X50Y35D01*
X49Y36D01*
X48Y37D01*
X47Y38D01*
X46Y39D01*
X45Y40D01*
X44Y41D01*
X43Y42D01*
X42Y43D01*
X41Y44D01*
X40Y45D01*
X39Y46D01*
X38Y47D01*
X37Y48D01*
X36Y49D01*
X35Y50D01*
X34Y51D01*
X34Y52D01*
X33Y53D01*
X32Y54D01*
X31Y55D01*
X31Y56D01*
X30Y57D01*
X29Y58D01*
X28Y59D01*
X28Y60D01*
X27Y61D01*
X26Y62D01*
X26Y63D01*
X25Y64D01*
X24Y65D01*
X24Y66D01*
X23Y67D01*
X23Y68D01*
X22Y69D01*
X22Y70D01*
X21Y71D01*
X21Y72D01*
X20Y73D01*
X20Y74D01*
X19Y75D01*
X19Y76D01*
X18Y77D01*
X18Y78D01*
X17Y79D01*
X17Y80D01*
X16Y81D01*
X16Y83D01*
X15Y84D01*
X15Y85D01*
X14Y86D01*
X14Y88D01*
X13Y89D01*
X13Y91D01*
X12Y92D01*
X12Y95D01*
X11Y96D01*
X11Y99D01*
X10Y100D01*
X10Y104D01*
X9Y105D01*
X9Y110D01*
X8Y111D01*
X8Y124D01*
X7Y125D01*
X7Y2094D01*
X8Y2095D01*
X8Y2108D01*
X9Y2109D01*
X9Y2115D01*
X10Y2116D01*
X10Y2119D01*
X11Y2120D01*
X11Y2123D01*
X12Y2124D01*
X12Y2127D01*
X13Y2128D01*
X13Y2130D01*
X14Y2131D01*
X14Y2133D01*
X15Y2134D01*
X15Y2136D01*
X16Y2137D01*
X16Y2138D01*
X17Y2139D01*
X17Y2140D01*
X18Y2141D01*
X18Y2143D01*
X19Y2144D01*
X19Y2145D01*
X20Y2146D01*
X20Y2147D01*
X21Y2148D01*
X21Y2149D01*
X22Y2150D01*
X23Y2151D01*
X23Y2152D01*
X24Y2153D01*
X24Y2154D01*
X25Y2155D01*
X26Y2156D01*
X26Y2157D01*
X27Y2158D01*
X27Y2159D01*
X28Y2160D01*
X29Y2161D01*
X30Y2162D01*
X30Y2163D01*
X31Y2164D01*
X32Y2165D01*
X33Y2166D01*
X33Y2167D01*
X34Y2168D01*
X35Y2169D01*
X36Y2170D01*
X37Y2171D01*
X38Y2172D01*
X39Y2173D01*
X39Y2174D01*
X40Y2175D01*
X41Y2176D01*
X42Y2177D01*
X43Y2178D01*
X44Y2179D01*
X45Y2180D01*
X46Y2180D01*
X47Y2181D01*
X48Y2182D01*
X49Y2183D01*
X50Y2184D01*
X51Y2185D01*
X52Y2185D01*
X53Y2186D01*
X54Y2187D01*
X55Y2188D01*
X56Y2189D01*
X57Y2189D01*
X58Y2190D01*
X59Y2191D01*
X60Y2191D01*
X61Y2192D01*
X62Y2193D01*
X63Y2193D01*
X64Y2194D01*
X65Y2194D01*
X66Y2195D01*
X67Y2196D01*
X68Y2196D01*
X69Y2197D01*
X70Y2197D01*
X71Y2198D01*
X72Y2198D01*
X73Y2199D01*
X74Y2199D01*
X75Y2200D01*
X76Y2200D01*
X77Y2201D01*
X78Y2201D01*
X79Y2202D01*
X80Y2202D01*
X81Y2202D01*
X82Y2203D01*
X83Y2203D01*
X84Y2204D01*
X85Y2204D01*
X86Y2204D01*
X87Y2205D01*
X88Y2205D01*
X89Y2205D01*
X90Y2206D01*
X91Y2206D01*
X92Y2206D01*
X93Y2207D01*
X94Y2207D01*
X95Y2207D01*
X96Y2207D01*
X97Y2208D01*
X98Y2208D01*
X99Y2208D01*
X100Y2208D01*
X101Y2208D01*
X102Y2209D01*
X103Y2209D01*
X104Y2209D01*
X105Y2209D01*
X106Y2209D01*
X107Y2210D01*
X108Y2210D01*
X109Y2210D01*
X110Y2210D01*
X111Y2210D01*
X112Y2210D01*
X113Y2210D01*
X114Y2210D01*
X115Y2211D01*
D02*
G04 End of contour*
M02*